<svg width="36" height="36" viewBox="0 0 36 36" fill="none" xmlns="http://www.w3.org/2000/svg">
<g id="Vector">
<path d="M35.9996 19.2561C35.9969 21.9014 35.9768 24.1497 35.8264 25.9946C35.652 28.1354 35.2945 29.9242 34.4945 31.41C34.1416 32.0653 33.708 32.6521 33.1801 33.1801C31.6818 34.6783 29.7729 35.3571 27.3538 35.6823C24.9904 36 21.9613 36 18.0961 36H17.9039C14.0387 36 11.0096 36 8.6462 35.6823C6.22711 35.3571 4.31824 34.6783 2.81995 33.1801C1.49167 31.8518 0.805728 30.1985 0.44096 28.1477C0.0826319 26.1331 0.0170828 23.6266 0.00346487 20.5141C3.45544e-07 19.7224 3.45487e-07 18.8851 3.45487e-07 18.0017V17.9039C-2.08578e-05 14.0387 -3.74705e-05 11.0096 0.317716 8.6462C0.642954 6.22711 1.32166 4.31824 2.81995 2.81995C4.31824 1.32166 6.22711 0.642954 8.6462 0.317716C10.748 0.0351359 13.4522 0.00386913 16.7436 0.000424705C17.4372 -0.000301103 18 0.562245 18 1.25581C18 1.94938 17.437 2.51136 16.7434 2.51209C13.4055 2.51562 10.9215 2.54604 8.98087 2.80695C6.84029 3.09474 5.54978 3.6421 4.59594 4.59594C3.6421 5.54978 3.09474 6.84029 2.80695 8.98087C2.5143 11.1576 2.51163 14.0179 2.51163 18C2.51163 18.4863 2.51163 18.9566 2.5122 19.412L4.18852 17.9452C5.71437 16.6101 8.01405 16.6867 9.4477 18.1203L16.6305 25.3031C17.7812 26.4538 19.5926 26.6107 20.924 25.675L21.4233 25.3241C23.3393 23.9776 25.9314 24.1336 27.672 25.7002L32.4115 29.9657C32.8885 28.9638 33.1718 27.6475 33.3231 25.7906C33.4657 24.041 33.4853 21.9159 33.4879 19.2562C33.4886 18.5626 34.0506 18 34.7442 18C35.4378 18 36.0003 18.5626 35.9996 19.2561Z" fill="#6F00FE"/>
<path fill-rule="evenodd" clip-rule="evenodd" d="M27.9 16.2C24.0816 16.2 22.1724 16.2 20.9862 15.0138C19.8 13.8276 19.8 11.9184 19.8 8.1C19.8 4.28162 19.8 2.37244 20.9862 1.18622C22.1724 0 24.0816 0 27.9 0C31.7184 0 33.6276 0 34.8138 1.18622C36 2.37244 36 4.28162 36 8.1C36 11.9184 36 13.8276 34.8138 15.0138C33.6276 16.2 31.7184 16.2 27.9 16.2ZM29.25 4.5C29.25 3.75442 28.6456 3.15 27.9 3.15C27.1544 3.15 26.55 3.75442 26.55 4.5V6.75H24.3C23.5544 6.75 22.95 7.35442 22.95 8.1C22.95 8.84558 23.5544 9.45 24.3 9.45H26.55V11.7C26.55 12.4456 27.1544 13.05 27.9 13.05C28.6456 13.05 29.25 12.4456 29.25 11.7V9.45H31.5C32.2456 9.45 32.85 8.84558 32.85 8.1C32.85 7.35442 32.2456 6.75 31.5 6.75H29.25V4.5Z" fill="#6F00FE"/>
</g>
</svg>
