<svg width="24" height="28" viewBox="0 0 24 28" fill="none" xmlns="http://www.w3.org/2000/svg">
<path d="M23.497 21.8204C23.0662 22.7987 22.5562 23.699 21.965 24.5271C21.1596 25.6556 20.5001 26.4368 19.9918 26.8707C19.2039 27.5828 18.3597 27.9474 17.4557 27.9681C16.8067 27.9681 16.024 27.7868 15.113 27.4186C14.199 27.0521 13.359 26.8707 12.591 26.8707C11.7854 26.8707 10.9215 27.0521 9.99749 27.4186C9.07202 27.7868 8.32649 27.9785 7.75646 27.9976C6.88958 28.0337 6.02551 27.6587 5.163 26.8707C4.61251 26.3988 3.92398 25.5898 3.0991 24.4441C2.2141 23.2204 1.48651 21.8014 0.916488 20.1837C0.306024 18.4364 0 16.7443 0 15.1062C0 13.2297 0.412608 11.6113 1.23905 10.2551C1.88856 9.16573 2.75263 8.30639 3.8341 7.67556C4.91556 7.04471 6.08407 6.72323 7.34246 6.70266C8.03102 6.70266 8.93395 6.91198 10.056 7.32332C11.175 7.73603 11.8934 7.94535 12.2084 7.94535C12.4439 7.94535 13.242 7.70061 14.595 7.21271C15.8746 6.76023 16.9544 6.57287 17.8391 6.64667C20.2363 6.83679 22.0373 7.76542 23.2349 9.43846C21.091 10.715 20.0305 12.503 20.0516 14.7966C20.0709 16.5832 20.7305 18.0699 22.0267 19.2504C22.614 19.7983 23.2702 20.2217 24 20.5225C23.8418 20.9736 23.6746 21.4056 23.497 21.8204ZM17.9991 0.560158C17.9991 1.96047 17.4785 3.26795 16.4409 4.47813C15.1886 5.91679 13.674 6.74813 12.0315 6.61695C12.0106 6.44896 11.9984 6.27214 11.9984 6.08634C11.9984 4.74205 12.5939 3.30337 13.6515 2.12707C14.1795 1.53148 14.851 1.03626 15.6653 0.641217C16.4778 0.252064 17.2464 0.0368538 17.9692 0C17.9903 0.1872 17.9991 0.374413 17.9991 0.560139V0.560158Z" fill="black"/>
</svg>
