<svg width="23" height="25" viewBox="0 0 23 25" fill="none" xmlns="http://www.w3.org/2000/svg">
<g id="Vector">
<path fill-rule="evenodd" clip-rule="evenodd" d="M10.4083 0C7.11033 0 4.43683 2.59347 4.43683 5.79268C4.43683 8.99189 7.11033 11.5854 10.4083 11.5854C13.7062 11.5854 16.3797 8.99189 16.3797 5.79268C16.3797 2.59347 13.7062 0 10.4083 0ZM6.32255 5.79268C6.32255 3.60375 8.15178 1.82927 10.4083 1.82927C12.6647 1.82927 14.494 3.60375 14.494 5.79268C14.494 7.98162 12.6647 9.7561 10.4083 9.7561C8.15178 9.7561 6.32255 7.98162 6.32255 5.79268Z" fill="#6F00FE"/>
<path fill-rule="evenodd" clip-rule="evenodd" d="M13.2368 20.4268C13.2368 17.9011 15.3475 15.8537 17.9511 15.8537C20.5547 15.8537 22.6654 17.9011 22.6654 20.4268C22.6654 22.9525 20.5547 25 17.9511 25C15.3475 25 13.2368 22.9525 13.2368 20.4268ZM15.3982 21.6098L19.1706 17.9503C18.8014 17.7789 18.3878 17.6829 17.9511 17.6829C16.3889 17.6829 15.1225 18.9114 15.1225 20.4268C15.1225 20.8504 15.2215 21.2516 15.3982 21.6098ZM17.9511 23.1707C17.5144 23.1707 17.1008 23.0747 16.7316 22.9033L20.504 19.2438C20.6807 19.602 20.7797 20.0032 20.7797 20.4268C20.7797 21.9422 19.5133 23.1707 17.9511 23.1707Z" fill="#6F00FE"/>
<path d="M2.55112 19.2073C2.55112 18.3302 3.20107 17.3573 4.65351 16.5521C6.07928 15.7618 8.11189 15.2439 10.4083 15.2439C11.4499 15.2439 12.4419 15.3506 13.3498 15.5431C13.8585 15.651 14.3611 15.3383 14.4722 14.8449C14.5834 14.3514 14.2612 13.8639 13.7524 13.756C12.7083 13.5347 11.5812 13.4146 10.4083 13.4146C7.84453 13.4146 5.47714 13.9887 3.71793 14.9639C1.9854 15.9243 0.665405 17.3904 0.665405 19.2073C0.665405 21.0242 1.9854 22.4904 3.71793 23.4507C5.47714 24.4259 7.84453 25 10.4083 25C10.8606 25 11.306 24.9822 11.7422 24.9476C12.2612 24.9064 12.6475 24.4649 12.6051 23.9615C12.5627 23.458 12.1076 23.0832 11.5886 23.1244C11.2037 23.1549 10.8096 23.1707 10.4083 23.1707C8.11189 23.1707 6.07928 22.6528 4.65351 21.8625C3.20107 21.0574 2.55112 20.0845 2.55112 19.2073Z" fill="#6F00FE"/>
</g>
</svg>
