<svg width="19" height="20" viewBox="0 0 19 20" fill="none" xmlns="http://www.w3.org/2000/svg">
<g id="Vector">
<path fill-rule="evenodd" clip-rule="evenodd" d="M7.75318 1.94342e-05H11.2213C11.4433 -0.000122149 11.6366 -0.000245454 11.8192 0.0289106C12.5405 0.144096 13.1647 0.593995 13.5021 1.24188C13.5875 1.40587 13.6485 1.58934 13.7186 1.79994L13.8331 2.14342C13.8524 2.20157 13.858 2.21802 13.8627 2.23099C14.0423 2.72752 14.508 3.06317 15.0358 3.07655C15.0497 3.0769 15.0667 3.07696 15.1283 3.07696H18.2052C18.63 3.07696 18.9744 3.42135 18.9744 3.84619C18.9744 4.27102 18.63 4.61542 18.2052 4.61542H0.769229C0.344396 4.61542 0 4.27102 0 3.84619C0 3.42135 0.344396 3.07696 0.769229 3.07696H3.84623C3.90782 3.07696 3.92481 3.0769 3.93869 3.07655C4.46654 3.06317 4.9322 2.72754 5.11181 2.23101C5.11653 2.21796 5.12196 2.20185 5.14144 2.14342L5.25591 1.79996C5.32595 1.58937 5.38699 1.40588 5.47238 1.24189C5.80976 0.593997 6.43397 0.144096 7.1553 0.0289106C7.33788 -0.000245454 7.53124 -0.000122149 7.75318 1.94342e-05ZM6.4186 3.07696C6.47143 2.97334 6.51825 2.86568 6.55853 2.75433C6.57076 2.72052 6.58275 2.68453 6.59816 2.63829L6.70052 2.3312C6.79403 2.05068 6.81556 1.99346 6.83692 1.95245C6.94938 1.73648 7.15745 1.58652 7.39789 1.54812C7.44356 1.54083 7.50463 1.5385 7.80034 1.5385H11.1742C11.4699 1.5385 11.5309 1.54083 11.5766 1.54812C11.817 1.58652 12.0251 1.73648 12.1376 1.95245C12.1589 1.99346 12.1805 2.05067 12.274 2.3312L12.3763 2.6381L12.416 2.75435C12.4562 2.86569 12.5031 2.97335 12.5559 3.07696H6.4186Z" fill="#6F00FE"/>
<path d="M3.24624 6.35912C3.21798 5.93522 2.85144 5.6145 2.42755 5.64276C2.00365 5.67102 1.68293 6.03756 1.71119 6.46145L2.18652 13.5914C2.27421 14.907 2.34504 15.9698 2.51116 16.8037C2.68388 17.6707 2.97764 18.3948 3.58441 18.9625C4.19117 19.5301 4.93327 19.7751 5.80983 19.8898C6.65293 20 7.71798 20 9.0365 20H9.93793C11.2564 20 12.3216 20 13.1647 19.8898C14.0412 19.7751 14.7833 19.5301 15.3901 18.9625C15.9969 18.3948 16.2906 17.6707 16.4633 16.8037C16.6295 15.9698 16.7003 14.9071 16.788 13.5914L17.2633 6.46145C17.2916 6.03756 16.9708 5.67102 16.5469 5.64276C16.1231 5.6145 15.7565 5.93522 15.7283 6.35912L15.2565 13.4351C15.1644 14.8175 15.0987 15.7794 14.9545 16.5031C14.8147 17.2051 14.6195 17.5767 14.339 17.839C14.0586 18.1014 13.6749 18.2714 12.9651 18.3643C12.2334 18.46 11.2693 18.4615 9.88384 18.4615H9.09065C7.70517 18.4615 6.74107 18.46 6.00937 18.3643C5.29963 18.2714 4.91588 18.1014 4.63546 17.839C4.35503 17.5767 4.15982 17.2051 4.01997 16.5031C3.8758 15.7794 3.81013 14.8175 3.71797 13.4351L3.24624 6.35912Z" fill="#6F00FE"/>
<path d="M6.84662 8.20897C7.26934 8.1667 7.6463 8.47511 7.68857 8.89784L8.20139 14.026C8.24366 14.4488 7.93524 14.8257 7.51252 14.868C7.08979 14.9103 6.71284 14.6018 6.67057 14.1791L6.15775 9.05092C6.11547 8.6282 6.42389 8.25124 6.84662 8.20897Z" fill="#6F00FE"/>
<path d="M12.1279 8.20897C12.5506 8.25124 12.859 8.6282 12.8168 9.05092L12.3039 14.1791C12.2617 14.6018 11.8847 14.9103 11.462 14.868C11.0393 14.8257 10.7308 14.4488 10.7731 14.026L11.2859 8.89784C11.3282 8.47511 11.7052 8.1667 12.1279 8.20897Z" fill="#6F00FE"/>
</g>
</svg>
