<svg width="20" height="20" viewBox="0 0 20 20" fill="none" xmlns="http://www.w3.org/2000/svg">
<path id="Vector" fill-rule="evenodd" clip-rule="evenodd" d="M9.94663 1.96781e-07L11.3953 4.18566e-07C11.7807 4.18566e-07 12.093 0.31236 12.093 0.697675C12.093 1.08299 11.7807 1.39535 11.3953 1.39535H10C7.7877 1.39535 6.19866 1.39683 4.98937 1.55941C3.80016 1.7193 3.08321 2.02339 2.5533 2.5533C2.02339 3.08321 1.7193 3.80016 1.55941 4.98937C1.39683 6.19866 1.39535 7.7877 1.39535 10C1.39535 12.2123 1.39683 13.8013 1.55941 15.0106C1.7193 16.1998 2.02339 16.9168 2.5533 17.4467C3.08321 17.9766 3.80016 18.2807 4.98937 18.4406C6.19866 18.6032 7.7877 18.6047 10 18.6047C12.2123 18.6047 13.8013 18.6032 15.0106 18.4406C16.1998 18.2807 16.9168 17.9766 17.4467 17.4467C17.9766 16.9168 18.2807 16.1998 18.4406 15.0106C18.6032 13.8013 18.6047 12.2123 18.6047 10V8.60465C18.6047 8.21934 18.917 7.90698 19.3023 7.90698C19.6876 7.90698 20 8.21934 20 8.60465V10.0534C20 12.2007 20 13.8835 19.8235 15.1966C19.6428 16.5405 19.2657 17.601 18.4334 18.4334C17.601 19.2657 16.5405 19.6428 15.1966 19.8235C13.8835 20 12.2007 20 10.0534 20H9.94663C7.79929 20 6.11646 20 4.80345 19.8235C3.45951 19.6428 2.39902 19.2657 1.56664 18.4334C0.734257 17.601 0.357197 16.5405 0.176509 15.1966C-2.12636e-05 13.8835 -1.17796e-05 12.2007 1.96781e-07 10.0534V9.94662C-1.17796e-05 7.79928 -2.12636e-05 6.11646 0.176509 4.80345C0.357197 3.45951 0.734257 2.39902 1.56664 1.56664C2.39902 0.734257 3.45951 0.357197 4.80345 0.176509C6.11646 -2.12636e-05 7.79928 -1.17796e-05 9.94663 1.96781e-07ZM14.4377 0.95434C15.7102 -0.318113 17.7732 -0.318113 19.0457 0.95434C20.3181 2.22679 20.3181 4.28984 19.0457 5.5623L12.8614 11.7466C12.516 12.092 12.2997 12.3084 12.0582 12.4967C11.7738 12.7185 11.4662 12.9087 11.1406 13.0638C10.8642 13.1955 10.5739 13.2923 10.1105 13.4467L7.40861 14.3473C6.90978 14.5136 6.35982 14.3838 5.98801 14.012C5.6162 13.6402 5.48638 13.0902 5.65265 12.5914L6.55327 9.88952C6.70771 9.4261 6.80445 9.13581 6.93618 8.8594C7.09134 8.53384 7.2815 8.22615 7.5033 7.94178C7.69162 7.70034 7.908 7.48399 8.25344 7.1386L14.4377 0.95434ZM18.059 1.941C17.3315 1.21347 16.1519 1.21347 15.4244 1.941L15.074 2.29134C15.0951 2.38052 15.1247 2.48676 15.1658 2.60527C15.2991 2.98951 15.5514 3.49555 16.0279 3.97209C16.5045 4.44863 17.0105 4.7009 17.3947 4.83421C17.5132 4.87532 17.6195 4.90486 17.7087 4.92598L18.059 4.57564C18.7865 3.8481 18.7865 2.66853 18.059 1.941ZM16.6094 6.0252C16.1295 5.81879 15.5704 5.48787 15.0413 4.95875C14.5121 4.42963 14.1812 3.87053 13.9748 3.39056L9.2721 8.09326C8.88465 8.48072 8.73269 8.63438 8.60355 8.79995C8.44407 9.00441 8.30735 9.22563 8.1958 9.4597C8.10546 9.64926 8.03598 9.85389 7.8627 10.3737L7.46094 11.579L8.42099 12.5391L9.62628 12.1373C10.1461 11.964 10.3507 11.8945 10.5403 11.8042C10.7744 11.6926 10.9956 11.5559 11.2 11.3965C11.3656 11.2673 11.5193 11.1154 11.9067 10.7279L16.6094 6.0252Z" fill="#6F00FE"/>
</svg>
