<svg width="26" height="26" viewBox="0 0 26 26" fill="none" xmlns="http://www.w3.org/2000/svg">
<path id="Vector" fill-rule="evenodd" clip-rule="evenodd" d="M12.9306 2.55815e-07L14.814 5.44135e-07C15.3149 5.44135e-07 15.7209 0.406068 15.7209 0.906977C15.7209 1.40789 15.3149 1.81395 14.814 1.81395H13C10.124 1.81395 8.05825 1.81588 6.48619 2.02724C4.94021 2.23509 4.00818 2.6304 3.31929 3.31929C2.6304 4.00818 2.23509 4.94021 2.02724 6.48619C1.81588 8.05825 1.81395 10.124 1.81395 13C1.81395 15.876 1.81588 17.9417 2.02724 19.5138C2.23509 21.0598 2.6304 21.9918 3.31929 22.6807C4.00818 23.3696 4.94021 23.7649 6.48619 23.9728C8.05825 24.1841 10.124 24.186 13 24.186C15.876 24.186 17.9417 24.1841 19.5138 23.9728C21.0598 23.7649 21.9918 23.3696 22.6807 22.6807C23.3696 21.9918 23.7649 21.0598 23.9728 19.5138C24.1841 17.9417 24.186 15.876 24.186 13V11.186C24.186 10.6851 24.5921 10.2791 25.093 10.2791C25.5939 10.2791 26 10.6851 26 11.186V13.0694C26 15.8609 26 18.0486 25.7705 19.7555C25.5356 21.5026 25.0455 22.8813 23.9634 23.9634C22.8813 25.0455 21.5026 25.5356 19.7555 25.7705C18.0486 26 15.8609 26 13.0694 26H12.9306C10.1391 26 7.9514 26 6.24448 25.7705C4.49736 25.5356 3.11873 25.0455 2.03663 23.9634C0.954535 22.8813 0.464355 21.5026 0.229461 19.7555C-2.76427e-05 18.0486 -1.53135e-05 15.8609 2.55815e-07 13.0694V12.9306C-1.53135e-05 10.1391 -2.76427e-05 7.9514 0.229461 6.24448C0.464356 4.49736 0.954535 3.11873 2.03663 2.03663C3.11873 0.954535 4.49736 0.464356 6.24448 0.229461C7.9514 -2.76427e-05 10.1391 -1.53135e-05 12.9306 2.55815e-07ZM18.769 1.24064C20.4232 -0.413546 23.1052 -0.413546 24.7594 1.24064C26.4135 2.89483 26.4135 5.5768 24.7594 7.23099L16.7198 15.2706C16.2708 15.7196 15.9895 16.0009 15.6757 16.2457C15.306 16.5341 14.906 16.7813 14.4828 16.983C14.1235 17.1542 13.7461 17.28 13.1437 17.4807L9.6312 18.6516C8.98272 18.8677 8.26776 18.6989 7.78441 18.2156C7.30107 17.7322 7.13229 17.0173 7.34845 16.3688L8.51926 12.8564C8.72002 12.2539 8.84579 11.8765 9.01704 11.5172C9.21874 11.094 9.46595 10.694 9.75429 10.3243C9.9991 10.0104 10.2804 9.72919 10.7295 9.28018L18.769 1.24064ZM23.4767 2.5233C22.5309 1.57751 20.9975 1.57751 20.0517 2.5233L19.5962 2.97875C19.6237 3.09467 19.6621 3.23279 19.7155 3.38685C19.8888 3.88636 20.2168 4.54421 20.8363 5.16371C21.4558 5.78321 22.1136 6.11117 22.6132 6.28447C22.7672 6.33791 22.9053 6.37632 23.0213 6.40378L23.4767 5.94833C24.4225 5.00253 24.4225 3.4691 23.4767 2.5233ZM21.5923 7.83276C20.9683 7.56442 20.2415 7.13423 19.5536 6.44637C18.8658 5.75851 18.4356 5.03169 18.1672 4.40773L12.0537 10.5212C11.55 11.0249 11.3525 11.2247 11.1846 11.4399C10.9773 11.7057 10.7996 11.9933 10.6545 12.2976C10.5371 12.544 10.4468 12.8101 10.2215 13.4858L9.69922 15.0527L10.9473 16.3008L12.5142 15.7785C13.1899 15.5532 13.456 15.4629 13.7024 15.3455C14.0067 15.2004 14.2943 15.0227 14.5601 14.8154C14.7753 14.6475 14.9751 14.45 15.4788 13.9463L21.5923 7.83276Z" fill="black"/>
</svg>
