<svg width="20" height="16" viewBox="0 0 20 16" fill="none" xmlns="http://www.w3.org/2000/svg">
<path id="Vector" opacity="0.6" fill-rule="evenodd" clip-rule="evenodd" d="M1.13206 1.17157C0 2.34315 0 4.22876 0 8C0 11.7712 0 13.6569 1.13206 14.8284C2.26411 16 4.08613 16 7.73016 16H11.5952C15.2393 16 17.0613 16 18.1933 14.8284C19.3254 13.6569 19.3254 11.7712 19.3254 8C19.3254 4.22876 19.3254 2.34315 18.1933 1.17157C17.0613 0 15.2393 0 11.5952 0H7.73016C4.08613 0 2.26411 0 1.13206 1.17157ZM16.017 3.51986C16.2733 3.83807 16.2317 4.31099 15.9243 4.57617L13.8019 6.40657C12.9454 7.14523 12.2512 7.74392 11.6385 8.15172C11.0003 8.57653 10.3788 8.84488 9.6627 8.84488C8.94662 8.84488 8.32506 8.57653 7.68685 8.15172C7.07417 7.74392 6.38 7.14523 5.52354 6.40658L3.40114 4.57617C3.09366 4.31099 3.05212 3.83807 3.30835 3.51986C3.56458 3.20165 4.02155 3.15866 4.32902 3.42383L6.4151 5.22291C7.31659 6.00038 7.94247 6.53841 8.47088 6.89013C8.98239 7.23059 9.32926 7.34487 9.6627 7.34487C9.99613 7.34487 10.343 7.23059 10.8545 6.89013C11.3829 6.53841 12.0088 6.00038 12.9103 5.22291L14.9964 3.42383C15.3038 3.15866 15.7608 3.20165 16.017 3.51986Z" fill="#949BAB"/>
</svg>
