<svg width="14" height="8" viewBox="0 0 14 8" fill="none" xmlns="http://www.w3.org/2000/svg">
<path d="M13.9992 4.12132C13.9092 4.40181 13.6708 4.59386 13.4671 4.80009C12.7353 5.54266 11.9256 6.21096 11.0038 6.76586C10.0877 7.31738 9.10699 7.73929 8.00766 7.91785C7.02731 8.0775 6.06901 8.00054 5.12591 7.72107C3.81903 7.33358 2.70905 6.66055 1.69373 5.8515C1.16091 5.42133 0.664391 4.95699 0.208192 4.46223C-0.0662609 4.16891 -0.0696821 3.83645 0.199829 3.54651C1.01596 2.66894 1.92713 1.88013 2.98997 1.23815C3.90494 0.684942 4.88605 0.263706 5.98462 0.0834657C6.96535 -0.0775356 7.92327 -0.0015915 8.86713 0.276532C10.1694 0.661315 11.2775 1.33097 12.2906 2.13598C12.8301 2.5716 13.3334 3.04132 13.7966 3.54145C13.892 3.64271 13.9422 3.76152 14 3.87898L13.9992 4.12132ZM7.00488 1.1055C6.57701 1.10479 6.15317 1.17893 5.75758 1.32369C5.36198 1.46844 5.00237 1.68098 4.69929 1.94915C4.39621 2.21733 4.1556 2.53589 3.99119 2.88664C3.82678 3.2374 3.7418 3.61348 3.7411 3.9934C3.73122 5.58755 5.18103 6.88197 6.99006 6.89615C8.78692 6.90897 10.2592 5.60544 10.2592 4.00218C10.2598 3.62207 10.1761 3.24558 10.0127 2.89423C9.84941 2.54288 9.60968 2.22357 9.30727 1.95454C9.00485 1.68552 8.64568 1.47206 8.2503 1.32637C7.85491 1.18069 7.43106 1.10564 7.00298 1.1055H7.00488Z" fill="white"/>
<path d="M9 4.00253C8.99986 4.26523 8.94794 4.52533 8.84719 4.76794C8.74645 5.01056 8.59886 5.23093 8.41287 5.41645C8.22687 5.60197 8.00613 5.749 7.76326 5.84913C7.52039 5.94926 7.26017 6.00053 6.99747 6C6.73477 5.99986 6.47467 5.94794 6.23206 5.84719C5.98944 5.74645 5.76907 5.59886 5.58355 5.41286C5.39803 5.22687 5.251 5.00613 5.15087 4.76326C5.05074 4.52039 4.99947 4.26016 5 3.99747C5.00018 3.73478 5.05214 3.4747 5.1529 3.23211C5.25366 2.98952 5.40125 2.76916 5.58723 2.58365C5.77322 2.39814 5.99394 2.2511 6.23679 2.15096C6.47964 2.05081 6.73985 1.99951 7.00253 2C7.26522 2.00018 7.5253 2.05214 7.76789 2.1529C8.01049 2.25366 8.23084 2.40125 8.41635 2.58723C8.60186 2.77322 8.7489 2.99394 8.84904 3.23679C8.94919 3.47964 9.00049 3.73985 9 4.00253ZM6.0636 3.85962C6.1403 3.85962 6.21733 3.85624 6.29369 3.85962C6.36126 3.86367 6.38931 3.84711 6.40485 3.77346C6.44641 3.57784 6.57175 3.45215 6.77076 3.41701C6.84272 3.40417 6.85185 3.37106 6.85083 3.3116C6.84847 3.15415 6.84678 2.99637 6.85083 2.83859C6.8532 2.76324 6.83259 2.74466 6.7542 2.75142C6.23389 2.79601 5.81663 3.20078 5.74061 3.73359C5.7254 3.83968 5.75513 3.87144 5.85717 3.85995C5.92592 3.85611 5.99484 3.856 6.0636 3.85962Z" fill="white"/>
</svg>
