<svg width="21" height="16" viewBox="0 0 21 16" fill="none" xmlns="http://www.w3.org/2000/svg">
<g clip-path="url(#clip0_245_265)">
<path opacity="0.4" d="M10.3823 14.3222C10.1594 14.3369 9.93556 14.3316 9.71356 14.3063C9.50663 14.2763 9.31843 14.1699 9.18605 14.0081C9.05367 13.8462 8.98672 13.6406 8.99837 13.4319C9.01683 13.0041 9.37337 12.6328 9.80217 12.6407C12.492 12.7024 14.6545 11.5447 16.539 9.74356C17.1733 9.13173 17.7493 8.46217 18.2594 7.74356C18.3386 7.63386 18.3512 7.55844 18.2647 7.43977C17.9388 6.99409 17.5975 6.5616 17.2336 6.14599C16.8892 5.75253 16.9119 5.23829 17.2795 4.91814C17.6471 4.59799 18.1408 4.64863 18.4894 5.03048C19.0784 5.67642 19.605 6.37662 20.0622 7.12173C20.2478 7.42394 20.2674 7.73671 20.0785 8.03417C18.5126 10.4957 16.5005 12.4577 13.7716 13.6001C12.6964 14.0489 11.5471 14.2938 10.3823 14.3222Z" fill="black"/>
<path opacity="0.4" d="M18.528 0.785225C18.4984 0.440289 18.317 0.188179 17.9979 0.0647611C17.6788 -0.0586567 17.3597 -0.00538703 17.1055 0.245668C16.4837 0.860647 15.8629 1.47721 15.2516 2.10274C15.1366 2.22035 15.0628 2.22141 14.9235 2.14493C12.3855 0.754635 9.7231 0.428158 6.97996 1.38385C3.87922 2.46402 1.65559 4.61118 0 7.39651V7.78839C0.0448312 7.87331 0.0838601 7.96191 0.134493 8.04366C1.26477 9.86065 2.70411 11.3812 4.49209 12.5627C4.64293 12.6629 4.65032 12.7072 4.51952 12.8343C3.93513 13.4034 3.35918 13.9825 2.78692 14.5616C2.67239 14.6677 2.59139 14.8049 2.55391 14.9565C2.51642 15.108 2.52408 15.2672 2.57595 15.4144C2.61733 15.5579 2.69798 15.6868 2.8088 15.7868C2.91961 15.8868 3.05617 15.9539 3.20306 15.9804C3.54325 16.0526 3.81171 15.916 4.05116 15.676C7.45306 12.2706 10.8564 8.86645 14.2611 5.4635C15.5818 4.14282 16.9026 2.8225 18.2236 1.50253C18.4277 1.30105 18.5522 1.07373 18.528 0.785225ZM10.9668 6.3828C10.2635 7.07373 9.56733 7.76975 8.87816 8.47088C8.77584 8.57637 8.73101 8.57637 8.65823 8.44662C8.50634 8.18433 8.42342 7.88783 8.41719 7.5848C8.45517 6.27995 9.82489 5.4962 10.9256 6.12858C11.0591 6.20611 11.106 6.24831 10.9668 6.3828ZM13.7621 3.59113C13.305 4.03698 12.8537 4.48811 12.4082 4.94451C12.3228 5.03206 12.2764 5.02099 12.1862 4.95189C10.0934 3.33691 7.10443 4.5616 6.76319 7.18185C6.64399 8.0943 6.87764 8.93027 7.452 9.65759C7.53323 9.75991 7.54167 9.81318 7.44357 9.9097C6.95886 10.3844 6.48101 10.8633 6.0058 11.3459C5.92563 11.4271 5.87131 11.4514 5.76213 11.3839C4.20306 10.4345 2.95253 9.1655 1.90401 7.68449C1.88029 7.65837 1.86742 7.6242 1.868 7.58892C1.86859 7.55365 1.8826 7.51993 1.90717 7.49461C3.30591 5.54736 4.99842 3.95558 7.27004 3.06898C8.17236 2.71913 9.13192 2.54028 10.0997 2.54155C11.3586 2.54909 12.5988 2.84651 13.7242 3.41075C13.8302 3.46033 13.8676 3.48829 13.7621 3.59113Z" fill="black"/>
</g>
<defs>
<clipPath id="clip0_245_265">
<rect width="20.211" height="16" fill="white"/>
</clipPath>
</defs>
</svg>
