<svg width="23" height="16" viewBox="0 0 23 16" fill="none" xmlns="http://www.w3.org/2000/svg">
<g id="Layer_1" clip-path="url(#clip0_1561_3783)">
<path id="Vector" d="M11.5045 4.65214e-05C16.3853 0.197188 20.142 2.39056 22.6536 6.77797C23.1165 7.58263 23.1146 8.42216 22.6536 9.23218C20.5693 12.9202 17.5022 15.1666 13.4243 15.8371C8.15702 16.7041 2.95835 14.0541 0.33474 9.23755C-0.1185 8.40942 -0.1185 7.57794 0.3451 6.75651C2.39375 3.13956 5.41125 0.951111 9.3976 0.191154C10.0929 0.0619852 10.7981 -0.00197652 11.5045 4.65214e-05ZM11.5278 1.51549C10.9272 1.52002 10.328 1.57383 9.73559 1.67642C6.16406 2.32082 3.46469 4.27011 1.62194 7.49948C1.42769 7.84213 1.43546 8.17003 1.62194 8.51805C3.87584 12.6929 8.54486 15.0955 13.0909 14.3652C16.7168 13.7832 19.466 11.8239 21.3476 8.55761C21.5658 8.17875 21.5652 7.82939 21.3476 7.45321C19.1131 3.62236 15.8097 1.69989 11.5278 1.51549Z" fill="black"/>
<path id="Vector_2" d="M11.5078 3.38139C12.0938 3.38183 12.674 3.50189 13.2152 3.73471C13.7564 3.96753 14.248 4.30855 14.6618 4.73826C15.0756 5.16796 15.4036 5.67794 15.627 6.23902C15.8504 6.8001 15.9649 7.40128 15.9638 8.00818C15.9641 8.61749 15.848 9.22085 15.6222 9.78348C15.3963 10.3461 15.0652 10.8569 14.6478 11.2864C14.2305 11.7158 13.7352 12.0555 13.1905 12.2858C12.6458 12.5161 12.0624 12.6325 11.4741 12.6283C10.8878 12.6262 10.3077 12.5044 9.76699 12.2698C9.22624 12.0353 8.73546 11.6926 8.32272 11.2615C7.90998 10.8303 7.58339 10.319 7.36164 9.75702C7.13989 9.19499 7.02733 8.59319 7.0304 7.98605C7.03209 7.37915 7.14929 6.77854 7.37528 6.21857C7.60127 5.6586 7.93163 5.15025 8.34746 4.7226C8.76329 4.29495 9.25644 3.95637 9.79871 3.72623C10.341 3.4961 10.9217 3.37892 11.5078 3.38139ZM11.4968 4.89482C10.7004 4.89694 9.93727 5.2255 9.37418 5.80866C8.81108 6.39181 8.49382 7.18213 8.49177 8.00684C8.49348 8.83196 8.81065 9.6228 9.37391 10.2064C9.93717 10.7899 10.7007 11.1188 11.4974 11.1209C12.2937 11.1186 13.0568 10.7899 13.6198 10.2066C14.1828 9.62328 14.4999 8.83289 14.5017 8.00818C14.5007 7.18302 14.1838 6.39195 13.6205 5.80835C13.0573 5.22475 12.2935 4.89624 11.4968 4.89482Z" fill="black"/>
</g>
<defs>
<clipPath id="clip0_1561_3783">
<rect width="23" height="16" fill="white"/>
</clipPath>
</defs>
</svg>
