<svg width="110" height="113" viewBox="0 0 110 113" fill="none" xmlns="http://www.w3.org/2000/svg">
<g filter="url(#filter0_d_1278_494)">
<circle cx="54" cy="45" r="32" fill="#6DF900"/>
</g>
<path fill-rule="evenodd" clip-rule="evenodd" d="M61.3714 38.7143C61.3714 41.3179 59.2608 43.4286 56.6571 43.4286C54.0535 43.4286 51.9429 41.3179 51.9429 38.7143C51.9429 36.1107 54.0535 34 56.6571 34C59.2608 34 61.3714 36.1107 61.3714 38.7143ZM56.6571 41.5429C58.2193 41.5429 59.4857 40.2765 59.4857 38.7143C59.4857 37.1521 58.2193 35.8857 56.6571 35.8857C55.095 35.8857 53.8286 37.1521 53.8286 38.7143C53.8286 40.2765 55.095 41.5429 56.6571 41.5429Z" fill="black"/>
<path fill-rule="evenodd" clip-rule="evenodd" d="M45.6571 51.2857C45.6571 53.8893 47.7678 56 50.3714 56C52.9751 56 55.0857 53.8893 55.0857 51.2857C55.0857 48.6821 52.9751 46.5714 50.3714 46.5714C47.7678 46.5714 45.6571 48.6821 45.6571 51.2857ZM50.3714 54.1143C48.8093 54.1143 47.5429 52.8479 47.5429 51.2857C47.5429 49.7235 48.8093 48.4571 50.3714 48.4571C51.9336 48.4571 53.2 49.7235 53.2 51.2857C53.2 52.8479 51.9336 54.1143 50.3714 54.1143Z" fill="black"/>
<path d="M56.3429 51.2336C56.3429 50.7128 56.765 50.2907 57.2857 50.2907H66.0857C66.6064 50.2907 67.0286 50.7128 67.0286 51.2336C67.0286 51.7543 66.6064 52.1764 66.0857 52.1764H57.2857C56.765 52.1764 56.3429 51.7543 56.3429 51.2336Z" fill="black"/>
<path d="M49.7429 37.7193C50.2636 37.7193 50.6857 38.1414 50.6857 38.6621C50.6857 39.1829 50.2636 39.605 49.7429 39.605L40.9429 39.605C40.4221 39.605 40 39.1829 40 38.6621C40 38.1414 40.4221 37.7193 40.9429 37.7193L49.7429 37.7193Z" fill="black"/>
<path d="M40 51.2336C40 50.7128 40.4221 50.2907 40.9429 50.2907H43.4571C43.9779 50.2907 44.4 50.7128 44.4 51.2336C44.4 51.7543 43.9779 52.1764 43.4571 52.1764H40.9429C40.4221 52.1764 40 51.7543 40 51.2336Z" fill="black"/>
<path d="M66.0857 37.7193C66.6064 37.7193 67.0286 38.1414 67.0286 38.6621C67.0286 39.1829 66.6064 39.605 66.0857 39.605H63.5714C63.0507 39.605 62.6286 39.1829 62.6286 38.6621C62.6286 38.1414 63.0507 37.7193 63.5714 37.7193H66.0857Z" fill="black"/>
<defs>
<filter id="filter0_d_1278_494" x="0" y="0.14" width="112" height="112" filterUnits="userSpaceOnUse" color-interpolation-filters="sRGB">
<feFlood flood-opacity="0" result="BackgroundImageFix"/>
<feColorMatrix in="SourceAlpha" type="matrix" values="0 0 0 0 0 0 0 0 0 0 0 0 0 0 0 0 0 0 127 0" result="hardAlpha"/>
<feOffset dx="2" dy="11.14"/>
<feGaussianBlur stdDeviation="12"/>
<feComposite in2="hardAlpha" operator="out"/>
<feColorMatrix type="matrix" values="0 0 0 0 0.643137 0 0 0 0 1 0 0 0 0 0.188235 0 0 0 0.5 0"/>
<feBlend mode="normal" in2="BackgroundImageFix" result="effect1_dropShadow_1278_494"/>
<feBlend mode="normal" in="SourceGraphic" in2="effect1_dropShadow_1278_494" result="shape"/>
</filter>
</defs>
</svg>
