<svg width="16" height="15" viewBox="0 0 16 15" fill="none" xmlns="http://www.w3.org/2000/svg">
<path d="M9.70875 0.578881L14.4123 5.07157C15.2916 5.91145 15.7313 6.33139 15.8933 6.82726C16.0356 7.26272 16.0356 7.73728 15.8933 8.17274C15.7313 8.66861 15.2916 9.08855 14.4123 9.92843L9.70875 14.4211C9.30972 14.8023 9.1102 14.9928 8.94074 14.9996C8.79352 15.0056 8.65216 14.9373 8.55847 14.8152C8.45062 14.6745 8.45062 14.3877 8.45062 13.814V10.9812C6.15632 10.9812 3.73307 11.773 1.96363 13.1787C1.04245 13.9104 0.581846 14.2763 0.406416 14.2619C0.235412 14.2478 0.126888 14.1761 0.0381622 14.0183C-0.0528612 13.8565 0.0275351 13.351 0.188328 12.3399C1.23242 5.77447 5.4372 4.01878 8.45062 4.01878V1.18599C8.45062 0.612299 8.45062 0.325453 8.55847 0.184824C8.65216 0.0626506 8.79352 -0.00556517 8.94074 0.000355977C9.1102 0.00717154 9.30972 0.197741 9.70875 0.578881Z" fill="white"/>
</svg>
