<svg width="23" height="23" viewBox="0 0 23 23" fill="none" xmlns="http://www.w3.org/2000/svg">
<rect width="23" height="23" fill="#6F6F6F"/>
<g id="Sign Up">
<g clip-path="url(#clip0_0_1)">
<rect x="-97" y="-681" width="375" height="812" rx="26" fill="white"/>
<g id="Group 37574">
<g id="Group 37562">
<g id="Group 36693">
<g id="Google Button">
<rect id="Rectangle 162" opacity="0.2" x="-17" y="-17" width="57" height="57" rx="10" fill="#AAAFBB"/>
</g>
<g id="Group 36692">
<g id="iconfinder_facebook_online_social_media_734399">
<g id="search" clip-path="url(#clip1_0_1)">
<path id="Vector" d="M5.0973 13.8991L4.2967 16.8879L1.37052 16.9498C0.496028 15.3278 0 13.472 0 11.4999C0 9.59295 0.463774 7.79464 1.28585 6.21118H1.28648L3.89159 6.68879L5.03279 9.27827C4.79394 9.97461 4.66375 10.7221 4.66375 11.4999C4.66384 12.3441 4.81676 13.1529 5.0973 13.8991Z" fill="#FBBB00"/>
<path id="Vector_2" d="M22.7992 9.35156C22.9313 10.0472 23.0001 10.7657 23.0001 11.4999C23.0001 12.3232 22.9136 13.1264 22.7487 13.901C22.1888 16.5372 20.7261 18.8391 18.6997 20.468L18.699 20.4674L15.4178 20.3L14.9534 17.401C16.298 16.6124 17.3488 15.3783 17.9023 13.901H11.7529V9.35156H17.992H22.7992Z" fill="#518EF8"/>
<path id="Vector_3" d="M18.6987 20.4677L18.6994 20.4683C16.7286 22.0524 14.2251 23.0002 11.4999 23.0002C7.12037 23.0002 3.31274 20.5524 1.37036 16.9501L5.09713 13.8994C6.0683 16.4913 8.56861 18.3364 11.4999 18.3364C12.7598 18.3364 13.9402 17.9958 14.953 17.4012L18.6987 20.4677Z" fill="#28B446"/>
<path id="Vector_4" d="M18.8405 2.64752L15.115 5.69754C14.0667 5.04231 12.8276 4.6638 11.5001 4.6638C8.50247 4.6638 5.95539 6.59351 5.03288 9.27836L1.28652 6.21127H1.28589C3.19983 2.52116 7.05549 0 11.5001 0C14.2904 0 16.8488 0.993943 18.8405 2.64752Z" fill="#F14336"/>
</g>
</g>
</g>
</g>
</g>
</g>
</g>
</g>
<defs>
<clipPath id="clip0_0_1">
<rect x="-97" y="-681" width="375" height="812" rx="26" fill="white"/>
</clipPath>
<clipPath id="clip1_0_1">
<rect width="23" height="23" fill="white"/>
</clipPath>
</defs>
</svg>
