<svg width="27" height="24" viewBox="0 0 27 24" fill="none" xmlns="http://www.w3.org/2000/svg">
<path id="Vector (Stroke)" fill-rule="evenodd" clip-rule="evenodd" d="M1.53999 12C1.53999 5.37258 6.81887 0 13.3307 0C19.8425 0 25.1214 5.37258 25.1214 12V15.4371C25.2159 15.4031 25.3177 15.3846 25.4237 15.3846C25.9246 15.3846 26.3307 15.7979 26.3307 16.3077V18.7692C26.3307 19.279 25.9246 19.6923 25.4237 19.6923C25.3141 19.6923 25.209 19.6725 25.1117 19.6362C25.1051 19.883 25.0939 20.1101 25.0749 20.3184C25.0261 20.8542 24.9208 21.3481 24.6605 21.8107C24.4873 22.1185 24.2695 22.3975 24.0138 22.6373C23.6263 23.0008 23.1772 23.2074 22.68 23.3608C22.2101 23.5057 21.6265 23.6228 20.9353 23.7615L20.8455 23.7796C20.3735 23.8743 19.9449 23.9604 19.5883 23.989C19.2044 24.0198 18.7717 23.9983 18.3572 23.7609C18.1117 23.6203 17.8972 23.4313 17.7245 23.2065C17.4376 22.8329 17.3416 22.4064 17.3 22.0137C17.2609 21.6435 17.2609 21.1869 17.2609 20.6743V14.2297C17.2609 13.7942 17.2609 13.4029 17.2916 13.0816C17.3244 12.7387 17.3996 12.3681 17.6214 12.0249C17.8041 11.7421 18.0488 11.5049 18.3386 11.335C18.6954 11.1257 19.0674 11.0793 19.4032 11.077C19.7136 11.0749 20.0862 11.1123 20.4925 11.1531L20.5772 11.1616C21.2855 11.2326 21.8814 11.2924 22.3642 11.3898C22.6952 11.4565 23.0088 11.547 23.3029 11.6905C23.1421 6.22588 18.739 1.84615 13.3307 1.84615C7.92241 1.84615 3.51923 6.22588 3.35849 11.6905C3.65255 11.547 3.96623 11.4565 4.29715 11.3898C4.78002 11.2924 5.37591 11.2326 6.08414 11.1616L6.16889 11.1531C6.57518 11.1123 6.94775 11.0749 7.25813 11.077C7.59399 11.0793 7.96594 11.1257 8.32281 11.335C8.61253 11.5049 8.85732 11.7421 9.04001 12.0249C9.26177 12.3681 9.33697 12.7387 9.36977 13.0816C9.40051 13.4029 9.40049 13.7942 9.40046 14.2297V20.6743C9.40049 21.1869 9.40052 21.6435 9.36133 22.0137C9.31977 22.4064 9.22378 22.8329 8.93683 23.2065C8.76417 23.4313 8.54965 23.6203 8.30419 23.7609C7.88964 23.9983 7.457 24.0198 7.07312 23.989C6.71647 23.9604 6.28786 23.8743 5.81589 23.7796L5.72608 23.7615C5.03485 23.6228 4.45132 23.5057 3.98139 23.3608C3.48417 23.2074 3.0351 23.0008 2.64759 22.6373C2.39192 22.3975 2.17405 22.1185 2.00089 21.8107C1.7406 21.3481 1.63527 20.8542 1.58648 20.3184C1.56752 20.1101 1.55629 19.883 1.54964 19.6362C1.45236 19.6725 1.34729 19.6923 1.23767 19.6923C0.736756 19.6923 0.330688 19.279 0.330688 18.7692V16.3077C0.330688 15.7979 0.736756 15.3846 1.23767 15.3846C1.34367 15.3846 1.44543 15.4031 1.53999 15.4371V12ZM3.35394 18.3917C3.35394 19.1937 3.35485 19.7323 3.3927 20.148C3.42916 20.5485 3.49433 20.7499 3.57503 20.8934C3.65714 21.0393 3.75923 21.1694 3.87687 21.2798C3.98803 21.384 4.15224 21.4844 4.5076 21.594C4.88051 21.709 5.37436 21.8092 6.12008 21.9589C6.65412 22.0661 6.97731 22.1294 7.21566 22.1486C7.34417 22.1589 7.40274 22.1515 7.4223 22.1474C7.45245 22.1288 7.4812 22.1036 7.50624 22.0714C7.5137 22.0565 7.53915 21.9923 7.55782 21.816C7.58526 21.5567 7.5865 21.2013 7.5865 20.6281V14.2703C7.5865 13.7814 7.58549 13.4814 7.56436 13.2605C7.5496 13.1062 7.52918 13.0503 7.52364 13.0381C7.49533 12.9946 7.46038 12.9613 7.42323 12.9382C7.40731 12.9339 7.35744 12.9239 7.24578 12.9231C7.04278 12.9217 6.76705 12.9482 6.30529 12.9945C5.54256 13.071 5.03538 13.123 4.64959 13.2007C4.2799 13.2753 4.10845 13.3584 3.99322 13.4468C3.82412 13.5764 3.67965 13.7436 3.57074 13.9396C3.49278 14.0799 3.42814 14.282 3.39207 14.689C3.3548 15.1094 3.35394 15.6553 3.35394 16.4647V18.3917ZM23.3074 16.4647C23.3074 15.6553 23.3066 15.1094 23.2693 14.689C23.2332 14.282 23.1686 14.0799 23.0906 13.9396C22.9817 13.7437 22.8373 13.5764 22.6682 13.4468C22.5529 13.3584 22.3815 13.2753 22.0118 13.2007C21.626 13.123 21.1188 13.071 20.3561 12.9945C19.8943 12.9482 19.6186 12.9217 19.4156 12.9231C19.3039 12.9239 19.2541 12.9339 19.2381 12.9382C19.201 12.9613 19.166 12.9946 19.1377 13.0381C19.1322 13.0503 19.1118 13.1062 19.097 13.2605C19.0759 13.4814 19.0749 13.7814 19.0749 14.2703V20.6281C19.0749 21.2013 19.0761 21.5567 19.1036 21.816C19.1222 21.9923 19.1477 22.0565 19.1551 22.0714C19.1802 22.1036 19.2089 22.1288 19.2391 22.1474C19.2586 22.1515 19.3172 22.1589 19.4457 22.1486C19.6841 22.1294 20.0073 22.0661 20.5413 21.9589C21.287 21.8092 21.7809 21.709 22.1538 21.594C22.5091 21.4844 22.6733 21.384 22.7845 21.2798C22.9022 21.1694 23.0042 21.0393 23.0863 20.8934C23.167 20.7499 23.2322 20.5485 23.2687 20.148C23.3065 19.7323 23.3074 19.1937 23.3074 18.3917V16.4647Z" fill="#6F00FE"/>
</svg>
