<svg width="25" height="25" viewBox="0 0 25 25" fill="none" xmlns="http://www.w3.org/2000/svg">
<path fill-rule="evenodd" clip-rule="evenodd" d="M12.5 1.74419C6.55973 1.74419 1.74419 6.55973 1.74419 12.5C1.74419 18.4403 6.55973 23.2558 12.5 23.2558C18.4403 23.2558 23.2558 18.4403 23.2558 12.5C23.2558 6.55973 18.4403 1.74419 12.5 1.74419ZM0 12.5C0 5.59644 5.59644 0 12.5 0C19.4036 0 25 5.59644 25 12.5C25 19.4036 19.4036 25 12.5 25C5.59644 25 0 19.4036 0 12.5ZM14.6499 9.22239C13.9465 9.40888 12.9985 9.78635 11.6329 10.3326C11.0034 10.5844 10.8862 10.6438 10.8 10.7193C10.7714 10.7444 10.7444 10.7714 10.7193 10.8C10.6438 10.8862 10.5844 11.0034 10.3326 11.6329C9.78635 12.9985 9.40888 13.9465 9.22239 14.6499C9.0282 15.3824 9.12337 15.5696 9.15394 15.6146C9.21573 15.7056 9.29416 15.784 9.38509 15.8458C9.43007 15.8763 9.61731 15.9715 10.3498 15.7773C11.0532 15.5908 12.0012 15.2134 13.3668 14.6671C13.9963 14.4153 14.1135 14.356 14.1997 14.2804L14.7747 14.9361L14.1997 14.2804C14.2283 14.2553 14.2553 14.2283 14.2804 14.1997L14.9361 14.7747L14.2804 14.1997C14.356 14.1135 14.4153 13.9963 14.6671 13.3668C15.2134 12.0012 15.5908 11.0532 15.7773 10.3498C15.9715 9.61731 15.8763 9.43007 15.8458 9.38509C15.784 9.29416 15.7056 9.21573 15.6146 9.15394C15.5696 9.12337 15.3824 9.0282 14.6499 9.22239ZM14.203 7.53644C15.0052 7.32378 15.8729 7.22065 16.5949 7.71131C16.8677 7.89669 17.103 8.13198 17.2884 8.40478C17.7791 9.12683 17.6759 9.99456 17.4633 10.7967C17.2462 11.6156 16.8273 12.6628 16.31 13.956L16.2866 14.0145C16.2735 14.0473 16.2605 14.0798 16.2477 14.1121C16.0579 14.5882 15.8901 15.0095 15.5918 15.3497C15.5164 15.4356 15.4356 15.5164 15.3497 15.5918C15.0095 15.8901 14.5882 16.0579 14.1121 16.2476C14.0798 16.2605 14.0473 16.2735 14.0145 16.2866L13.6907 15.4769L14.0145 16.2866L13.956 16.31C12.6628 16.8273 11.6156 17.2462 10.7967 17.4633C9.99456 17.6759 9.12683 17.7791 8.40478 17.2884L8.89493 16.5671L8.40477 17.2884C8.13198 17.103 7.89669 16.8677 7.71131 16.5949C7.22065 15.8729 7.32378 15.0052 7.53644 14.203C7.75353 13.3841 8.17243 12.3369 8.68974 11.0437L8.71315 10.9852C8.72625 10.9524 8.73921 10.9199 8.75206 10.8876C8.94177 10.4115 9.10964 9.99023 9.40796 9.65004C9.48328 9.56415 9.56415 9.48328 9.65004 9.40796C9.99023 9.10964 10.4115 8.94177 10.8876 8.75206C10.9199 8.73921 10.9524 8.72625 10.9852 8.71315L11.0437 8.68974C12.3369 8.17242 13.3841 7.75353 14.203 7.53644Z" fill="#6F00FE"/>
</svg>
