<svg width="20" height="20" viewBox="0 0 20 20" fill="none" xmlns="http://www.w3.org/2000/svg">
<g id="Danger Circle">
<g id="Vector">
<path d="M10 4.65116C10.3853 4.65116 10.6977 4.96352 10.6977 5.34884V10.9302C10.6977 11.3155 10.3853 11.6279 10 11.6279C9.61469 11.6279 9.30233 11.3155 9.30233 10.9302V5.34884C9.30233 4.96352 9.61469 4.65116 10 4.65116Z" fill="#6F00FE"/>
<path d="M10 14.6512C10.5138 14.6512 10.9302 14.2347 10.9302 13.7209C10.9302 13.2072 10.5138 12.7907 10 12.7907C9.48625 12.7907 9.06977 13.2072 9.06977 13.7209C9.06977 14.2347 9.48625 14.6512 10 14.6512Z" fill="#6F00FE"/>
<path fill-rule="evenodd" clip-rule="evenodd" d="M0 10C0 4.47715 4.47715 0 10 0C15.5228 0 20 4.47715 20 10C20 15.5228 15.5228 20 10 20C4.47715 20 0 15.5228 0 10ZM10 1.39535C5.24778 1.39535 1.39535 5.24778 1.39535 10C1.39535 14.7522 5.24778 18.6047 10 18.6047C14.7522 18.6047 18.6047 14.7522 18.6047 10C18.6047 5.24778 14.7522 1.39535 10 1.39535Z" fill="#6F00FE"/>
</g>
</g>
</svg>
