<svg width="16" height="16" viewBox="0 0 16 16" fill="none" xmlns="http://www.w3.org/2000/svg">
<g id="Vector">
<path d="M8 12.2791C8.30825 12.2791 8.55814 12.0292 8.55814 11.7209V7.25581C8.55814 6.94756 8.30825 6.69767 8 6.69767C7.69175 6.69767 7.44186 6.94756 7.44186 7.25581V11.7209C7.44186 12.0292 7.69175 12.2791 8 12.2791Z" fill="white"/>
<path d="M8 4.27907C8.411 4.27907 8.74419 4.61225 8.74419 5.02326C8.74419 5.43426 8.411 5.76744 8 5.76744C7.589 5.76744 7.25581 5.43426 7.25581 5.02326C7.25581 4.61225 7.589 4.27907 8 4.27907Z" fill="white"/>
<path fill-rule="evenodd" clip-rule="evenodd" d="M0 8C0 3.58172 3.58172 0 8 0C12.4183 0 16 3.58172 16 8C16 12.4183 12.4183 16 8 16C3.58172 16 0 12.4183 0 8ZM8 1.11628C4.19823 1.11628 1.11628 4.19823 1.11628 8C1.11628 11.8018 4.19823 14.8837 8 14.8837C11.8018 14.8837 14.8837 11.8018 14.8837 8C14.8837 4.19823 11.8018 1.11628 8 1.11628Z" fill="white"/>
</g>
</svg>
