<svg width="19" height="21" viewBox="0 0 19 21" fill="none" xmlns="http://www.w3.org/2000/svg">
<path d="M18.2881 14.3757L18.9761 10.3974C19.1479 9.40371 18.3838 8.49488 17.3765 8.49488H12.3242C11.8235 8.49488 11.4422 8.04543 11.5233 7.55074L12.1694 3.60676C12.2744 2.96603 12.2444 2.3104 12.0814 1.68195C11.9464 1.16135 11.5447 0.743318 11.0165 0.573621L10.8751 0.528208C10.5559 0.425649 10.2074 0.449515 9.90641 0.594555C9.57511 0.754201 9.33273 1.0454 9.24289 1.39172L8.77902 3.17997C8.63142 3.74895 8.41643 4.29816 8.13923 4.81709C7.73421 5.57531 7.10799 6.18213 6.45706 6.74305L5.0541 7.95201C4.65853 8.29288 4.45079 8.80337 4.4958 9.32394L5.28777 18.483C5.36041 19.3231 6.0628 19.9681 6.9051 19.9681H11.4381C14.8328 19.9681 17.73 17.6028 18.2881 14.3757Z" fill="#6F00FE"/>
<path fill-rule="evenodd" clip-rule="evenodd" d="M1.41564 7.7643C1.80692 7.74742 2.14206 8.04177 2.1758 8.43197L3.12323 19.389C3.18409 20.0929 2.62969 20.6995 1.92177 20.6995C1.25496 20.6995 0.71582 20.1586 0.71582 19.493V8.49497C0.71582 8.10332 1.02435 7.78119 1.41564 7.7643Z" fill="#6F00FE"/>
</svg>
