<svg width="48" height="48" viewBox="0 0 48 48" fill="none" xmlns="http://www.w3.org/2000/svg">
<g id="Property 1=Variant2">
<rect id="Rectangle 30251" width="48" height="48" rx="24" fill="#6F00FE"/>
<g id="Vector">
<path d="M34.4065 28.9459L35.2447 24.0994C35.454 22.8889 34.5231 21.7817 33.296 21.7817H27.1412C26.5312 21.7817 26.0666 21.2342 26.1654 20.6316L26.9526 15.8269C27.0805 15.0463 27.044 14.2476 26.8454 13.482C26.6808 12.8478 26.1915 12.3385 25.548 12.1318L25.3758 12.0764C24.9868 11.9515 24.5624 11.9806 24.1957 12.1573C23.7921 12.3518 23.4968 12.7065 23.3874 13.1284L22.8222 15.3069C22.6424 16.0001 22.3805 16.6691 22.0428 17.3013C21.5494 18.225 20.7865 18.9643 19.9935 19.6476L18.2844 21.1204C17.8025 21.5357 17.5494 22.1576 17.6043 22.7917L18.5691 33.9497C18.6576 34.9731 19.5132 35.7588 20.5394 35.7588H26.0617C30.1972 35.7588 33.7266 32.8773 34.4065 28.9459Z" fill="white"/>
<path fill-rule="evenodd" clip-rule="evenodd" d="M13.8525 20.8918C14.3292 20.8713 14.7375 21.2299 14.7786 21.7052L15.9328 35.0535C16.0069 35.911 15.3316 36.65 14.4691 36.65C13.6568 36.65 13 35.991 13 35.1802V21.782C13 21.3048 13.3759 20.9124 13.8525 20.8918Z" fill="white"/>
</g>
</g>
</svg>
