<svg width="48" height="48" viewBox="0 0 48 48" fill="none" xmlns="http://www.w3.org/2000/svg">
<g id="Vector">
<rect id="Rectangle 30251" opacity="0.2" width="48" height="48" rx="24" fill="#6F00FE"/>
<path id="Vector_2" fill-rule="evenodd" clip-rule="evenodd" d="M25.2003 13.7522C25.0266 13.6988 24.8367 13.7118 24.6753 13.7862C24.4986 13.8677 24.3819 14.01 24.3399 14.1647L23.7703 16.2672C23.5711 17.0024 23.281 17.7116 22.9074 18.3811C22.3275 19.4206 21.4499 20.22 20.6358 20.8917L18.9129 22.313C18.6459 22.5333 18.5054 22.8635 18.5358 23.2006L19.5084 33.9688C19.5575 34.5128 20.0322 34.929 20.5997 34.929H26.1664C29.9221 34.929 33.0865 32.4271 33.6934 29.0674L34.5383 24.3901C34.6546 23.7464 34.1375 23.1598 33.4589 23.1598H27.2546C26.0845 23.1598 25.1957 22.1547 25.3847 21.0509L26.1782 16.414C26.2869 15.7788 26.2559 15.1289 26.0871 14.506C26.0014 14.1898 25.7408 13.9185 25.3739 13.8056L25.2003 13.7522L25.475 12.9336L25.2003 13.7522ZM23.8955 12.237C24.4734 11.9704 25.1393 11.9273 25.7497 12.115L25.9233 12.1684L25.6486 12.987L25.9233 12.1684C26.8538 12.4545 27.5797 13.1662 27.8258 14.0742C28.0574 14.9289 28.0999 15.8206 27.9508 16.6921L27.1573 21.3289C27.1471 21.3883 27.1949 21.4401 27.2546 21.4401H33.4589C35.2543 21.4401 36.614 22.9904 36.3082 24.6832L35.4634 29.3604C34.6996 33.5888 30.7483 36.6486 26.1664 36.6486H20.5997C19.0985 36.6486 17.8481 35.5483 17.7188 34.1169L16.7462 23.3487C16.6661 22.4617 17.0358 21.5915 17.7403 21.0103L19.4632 19.589C20.2478 18.9417 20.9083 18.3143 21.3231 17.5709C21.6303 17.0202 21.8683 16.438 22.0316 15.8354L22.6013 13.7329C22.78 13.0734 23.2585 12.5309 23.8955 12.237ZM13.8594 21.4409C14.3399 21.421 14.7515 21.7671 14.7929 22.2259L15.9564 35.1079C16.0311 35.9354 15.3503 36.6486 14.4809 36.6486C13.6621 36.6486 13 36.0127 13 35.2302V22.2999C13 21.8395 13.3789 21.4607 13.8594 21.4409Z" fill="#6F00FE"/>
</g>
</svg>
