<svg width="18" height="19" viewBox="0 0 18 19" fill="none" xmlns="http://www.w3.org/2000/svg">
<path fill-rule="evenodd" clip-rule="evenodd" d="M9.40441 1.35069C9.27051 1.30951 9.12409 1.31949 8.99971 1.37687C8.86354 1.43969 8.77354 1.54934 8.74121 1.66865L8.3021 3.28926C8.14853 3.85602 7.92495 4.40268 7.63699 4.91878C7.18992 5.72004 6.51347 6.33628 5.88592 6.854L4.55786 7.94964C4.35203 8.11944 4.24371 8.37398 4.26718 8.63377L5.01686 16.9343C5.05473 17.3536 5.42066 17.6744 5.85811 17.6744H10.1491C13.0441 17.6744 15.4834 15.7459 15.9512 13.1561L16.6024 9.55071C16.6921 9.05452 16.2935 8.60232 15.7704 8.60232H10.9879C10.086 8.60232 9.40089 7.82761 9.54651 6.97672L10.1582 3.40246C10.242 2.91286 10.2181 2.41188 10.0879 1.93168C10.0219 1.68798 9.82107 1.47884 9.53823 1.39185L9.40441 1.35069L9.61615 0.719661L9.40441 1.35069ZM8.39865 0.182704C8.84411 -0.0228031 9.35738 -0.0560773 9.8279 0.0886319L9.96171 0.129787L9.74997 0.760816L9.96171 0.129788C10.6789 0.350376 11.2385 0.898913 11.4282 1.59883C11.6067 2.2577 11.6395 2.94505 11.5246 3.61679L10.9129 7.19105C10.9051 7.23679 10.9419 7.27673 10.9879 7.27673H15.7704C17.1544 7.27673 18.2025 8.4718 17.9668 9.7766L17.3155 13.382C16.7267 16.6414 13.681 19 10.1491 19H5.85811C4.70091 19 3.73706 18.1518 3.63741 17.0485L2.88772 8.74796C2.82597 8.06421 3.11094 7.39348 3.65401 6.94546L4.98206 5.84982C5.58687 5.35086 6.09598 4.86724 6.41571 4.29421C6.65254 3.86975 6.83599 3.42095 6.96186 2.95642L7.40097 1.3358C7.53872 0.827398 7.9076 0.409245 8.39865 0.182704ZM0.662454 7.27735C1.03285 7.26205 1.35009 7.52881 1.38203 7.88243L2.27888 17.8124C2.33649 18.4502 1.81169 19 1.14156 19C0.510355 19 0 18.5098 0 17.9066V7.93953C0 7.58459 0.292059 7.29265 0.662454 7.27735Z" fill="black"/>
</svg>
