<svg width="21" height="21" viewBox="0 0 21 21" fill="none" xmlns="http://www.w3.org/2000/svg">
<path opacity="0.6" fill-rule="evenodd" clip-rule="evenodd" d="M4.125 8.80461V6.75C4.125 3.02208 7.14708 0 10.875 0C14.6029 0 17.625 3.02208 17.625 6.75V8.80461C18.7398 8.88786 19.4657 9.09805 19.9963 9.62868C20.875 10.5074 20.875 11.9216 20.875 14.75C20.875 17.5784 20.875 18.9926 19.9963 19.8713C19.1176 20.75 17.7034 20.75 14.875 20.75H6.875C4.04657 20.75 2.63236 20.75 1.75368 19.8713C0.875 18.9926 0.875 17.5784 0.875 14.75C0.875 11.9216 0.875 10.5074 1.75368 9.62868C2.28431 9.09805 3.01025 8.88786 4.125 8.80461ZM5.625 6.75C5.625 3.85051 7.97551 1.5 10.875 1.5C13.7745 1.5 16.125 3.85051 16.125 6.75V8.75357C15.742 8.75 15.3265 8.75 14.875 8.75H6.875C6.42349 8.75 6.00801 8.75 5.625 8.75357V6.75ZM10.875 12C11.2892 12 11.625 12.3358 11.625 12.75V16.75C11.625 17.1642 11.2892 17.5 10.875 17.5C10.4608 17.5 10.125 17.1642 10.125 16.75V12.75C10.125 12.3358 10.4608 12 10.875 12Z" fill="#949BAB"/>
</svg>
