<svg width="21" height="23" viewBox="0 0 21 23" fill="none" xmlns="http://www.w3.org/2000/svg">
<path d="M11.3077 0.841463C11.3077 0.376736 10.9461 0 10.5 0C10.0539 0 9.69231 0.376736 9.69231 0.841463V5.32927C9.69231 5.79399 10.0539 6.17073 10.5 6.17073C10.9461 6.17073 11.3077 5.79399 11.3077 5.32927V0.841463Z" fill="black"/>
<path d="M7.04512 3.53053C7.45602 3.34966 7.64839 2.85601 7.47478 2.42792C7.30117 1.99984 6.82733 1.79943 6.41642 1.9803C2.64743 3.6393 0 7.52707 0 12.061C0 18.1024 4.70101 23 10.5 23C16.299 23 21 18.1024 21 12.061C21 7.52707 18.3526 3.6393 14.5836 1.9803C14.1727 1.79943 13.6988 1.99984 13.5252 2.42792C13.3516 2.85601 13.544 3.34966 13.9549 3.53053C17.147 4.93561 19.3846 8.22703 19.3846 12.061C19.3846 17.173 15.4068 21.3171 10.5 21.3171C5.59316 21.3171 1.61538 17.173 1.61538 12.061C1.61538 8.22703 3.85301 4.93561 7.04512 3.53053Z" fill="black"/>
</svg>
