<svg width="38" height="38" viewBox="0 0 38 38" fill="none" xmlns="http://www.w3.org/2000/svg">
<path fill-rule="evenodd" clip-rule="evenodd" d="M18.7886 7C14.2098 7 10.4979 10.7119 10.4979 15.2907V16.0439C10.4979 16.7895 10.2772 17.5183 9.86367 18.1387L8.63493 19.9818C7.20883 22.1209 8.29754 25.0286 10.7779 25.705C11.5862 25.9255 12.4014 26.112 13.2213 26.2645L13.2233 26.2699C14.0459 28.465 16.2446 30 18.7885 30C21.3324 30 23.5311 28.465 24.3538 26.2699L24.3558 26.2645C25.1757 26.112 25.9909 25.9255 26.7993 25.705C29.2797 25.0286 30.3684 22.1209 28.9423 19.9818L27.7135 18.1387C27.3 17.5183 27.0793 16.7895 27.0793 16.0439V15.2907C27.0793 10.7119 23.3674 7 18.7886 7ZM22.4006 26.5628C20.0011 26.8495 17.5759 26.8495 15.1765 26.5628C15.937 27.6556 17.2599 28.3953 18.7885 28.3953C20.3172 28.3953 21.64 27.6556 22.4006 26.5628ZM12.1026 15.2907C12.1026 11.5981 15.096 8.60465 18.7886 8.60465C22.4812 8.60465 25.4747 11.5981 25.4747 15.2907V16.0439C25.4747 17.1063 25.7891 18.1448 26.3784 19.0288L27.6071 20.8719C28.4257 22.0997 27.8008 23.7686 26.3771 24.1569C21.4088 25.5119 16.1684 25.5119 11.2001 24.1569C9.77643 23.7686 9.15153 22.0997 9.97008 20.8719L11.1988 19.0288C11.7881 18.1448 12.1026 17.1063 12.1026 16.0439V15.2907Z" fill="black"/>
<circle cx="25.25" cy="8.875" r="4.09314" fill="#FF4141" stroke="#F8FAFD" stroke-width="1.68627"/>
</svg>
