<svg width="28" height="22" viewBox="0 0 28 22" fill="none" xmlns="http://www.w3.org/2000/svg">
<path id="Vector (Stroke)" fill-rule="evenodd" clip-rule="evenodd" d="M11.0903 4.04317e-07H16.2607C18.5711 -1.95275e-05 20.401 -3.54052e-05 21.8332 0.192513C23.3071 0.390674 24.5 0.808192 25.4408 1.74899C26.3816 2.68979 26.7991 3.88275 26.9973 5.35666C27.111 6.20255 27.1576 7.18721 27.1766 8.32766C27.1853 8.37905 27.1898 8.43186 27.1898 8.48571C27.1898 8.53003 27.1868 8.57364 27.1809 8.61632C27.1898 9.32753 27.1898 10.0972 27.1898 10.9291V11.0709C27.1898 13.3812 27.1899 15.2112 26.9973 16.6433C26.7991 18.1172 26.3816 19.3102 25.4408 20.251C24.5 21.1918 23.3071 21.6093 21.8332 21.8075C20.401 22 18.5711 22 16.2607 22H11.0903C8.78001 22 6.95007 22 5.51791 21.8075C4.04401 21.6093 2.85105 21.1918 1.91025 20.251C0.969447 19.3102 0.551929 18.1172 0.353768 16.6433C0.161219 15.2112 0.161235 13.3812 0.161255 11.0709V10.9291C0.161248 10.0971 0.161242 9.32751 0.170226 8.6163C0.164312 8.57362 0.161256 8.53002 0.161256 8.48571C0.161256 8.43186 0.16577 8.37907 0.174442 8.32768C0.19349 7.18722 0.24004 6.20255 0.353768 5.35666C0.551929 3.88276 0.969447 2.68979 1.91025 1.74899C2.85105 0.808192 4.04401 0.390674 5.51791 0.192513C6.95007 -3.54052e-05 8.78 -1.95275e-05 11.0903 4.04317e-07ZM2.04947 9.42857C2.04708 9.91683 2.04697 10.4394 2.04697 11C2.04697 13.3971 2.04897 15.1002 2.22267 16.3921C2.39271 17.6569 2.71161 18.3856 3.24365 18.9176C3.77568 19.4496 4.50438 19.7685 5.76918 19.9386C7.0611 20.1123 8.76411 20.1143 11.1613 20.1143H16.1898C18.587 20.1143 20.29 20.1123 21.5819 19.9386C22.8467 19.7685 23.5754 19.4496 24.1074 18.9176C24.6395 18.3856 24.9584 17.6569 25.1284 16.3921C25.3021 15.1002 25.3041 13.3971 25.3041 11C25.3041 10.4394 25.304 9.91683 25.3016 9.42857H2.04947ZM25.2713 7.54286H2.07975C2.10434 6.80526 2.14737 6.16796 2.22267 5.60792C2.39271 4.34313 2.71161 3.61443 3.24365 3.08239C3.77568 2.55036 4.50438 2.23146 5.76918 2.06141C7.0611 1.88772 8.76411 1.88571 11.1613 1.88571H16.1898C18.587 1.88571 20.29 1.88772 21.5819 2.06141C22.8467 2.23146 23.5754 2.55036 24.1074 3.08239C24.6395 3.61443 24.9584 4.34313 25.1284 5.60792C25.2037 6.16796 25.2467 6.80526 25.2713 7.54286ZM5.18983 16.0286C5.18983 15.5078 5.61196 15.0857 6.13268 15.0857H11.1613C11.682 15.0857 12.1041 15.5078 12.1041 16.0286C12.1041 16.5493 11.682 16.9714 11.1613 16.9714H6.13268C5.61196 16.9714 5.18983 16.5493 5.18983 16.0286ZM13.3613 16.0286C13.3613 15.5078 13.7834 15.0857 14.3041 15.0857H16.1898C16.7106 15.0857 17.1327 15.5078 17.1327 16.0286C17.1327 16.5493 16.7106 16.9714 16.1898 16.9714H14.3041C13.7834 16.9714 13.3613 16.5493 13.3613 16.0286Z" fill="#6F00FE"/>
</svg>
