<svg width="18" height="18" viewBox="0 0 18 18" fill="none" xmlns="http://www.w3.org/2000/svg">
<path opacity="0.6" d="M6.79229 1.48069L7.52243 2.78899C8.18134 3.96966 7.91683 5.51849 6.87905 6.55628C6.87905 6.55628 5.62025 7.81509 7.90258 10.0974C10.1849 12.3797 11.4437 11.121 11.4437 11.121C12.4815 10.0832 14.0303 9.81866 15.211 10.4776L16.5193 11.2077C18.3021 12.2027 18.5127 14.7029 16.9456 16.27C16.004 17.2116 14.8505 17.9443 13.5753 17.9926C11.4286 18.074 7.78306 17.5307 4.12617 13.8738C0.469269 10.2169 -0.0740086 6.57138 0.00737061 4.42472C0.0557122 3.14955 0.788403 1.99601 1.73003 1.05439C3.2971 -0.512683 5.79732 -0.302133 6.79229 1.48069Z" fill="#949BAB"/>
</svg>
