<svg width="46" height="46" viewBox="0 0 46 46" fill="none" xmlns="http://www.w3.org/2000/svg">
<g id="Group 48096547">
<circle id="Ellipse 4031" cx="23" cy="23" r="21.5" fill="#6F00FE" stroke="#F8FAFD" stroke-width="3"/>
<g id="Vector">
<path d="M20.642 32H25.5802C29.0481 32 30.782 32 32.0275 31.1829C32.5667 30.8291 33.0297 30.3746 33.39 29.8452C34.2222 28.6223 34.2222 26.9199 34.2222 23.5152C34.2222 20.1104 34.2222 18.408 33.39 17.1851C33.0297 16.6557 32.5667 16.2012 32.0275 15.8474C31.2272 15.3224 30.2252 15.1347 28.6911 15.0676C27.9591 15.0676 27.3288 14.523 27.1852 13.8182C26.9698 12.761 26.0244 12 24.9263 12H21.2959C20.1978 12 19.2524 12.761 19.037 13.8182C18.8935 14.523 18.2632 15.0676 17.5311 15.0676C15.997 15.1347 14.9951 15.3224 14.1947 15.8474C13.6555 16.2012 13.1925 16.6557 12.8322 17.1851C12 18.408 12 20.1104 12 23.5152C12 26.9199 12 28.6223 12.8322 29.8452C13.1925 30.3746 13.6555 30.8291 14.1947 31.1829C15.4403 32 17.1742 32 20.642 32Z" fill="white"/>
<path fill-rule="evenodd" clip-rule="evenodd" d="M23.1111 20.7879C21.577 20.7879 20.3333 22.0089 20.3333 23.5152C20.3333 25.0214 21.577 26.2424 23.1111 26.2424C24.6452 26.2424 25.8889 25.0214 25.8889 23.5152C25.8889 22.0089 24.6452 20.7879 23.1111 20.7879ZM18.4815 23.5152C18.4815 21.0048 20.5542 18.9697 23.1111 18.9697C25.668 18.9697 27.7407 21.0048 27.7407 23.5152C27.7407 26.0255 25.668 28.0606 23.1111 28.0606C20.5542 28.0606 18.4815 26.0255 18.4815 23.5152Z" fill="#6F00FE"/>
<path fill-rule="evenodd" clip-rule="evenodd" d="M28.358 19.8788C28.358 19.3767 28.7726 18.9697 29.284 18.9697H30.5185C31.0299 18.9697 31.4444 19.3767 31.4444 19.8788C31.4444 20.3809 31.0299 20.7879 30.5185 20.7879H29.284C28.7726 20.7879 28.358 20.3809 28.358 19.8788Z" fill="#6F00FE"/>
</g>
</g>
</svg>
