<svg width="75" height="74" viewBox="0 0 75 74" fill="none" xmlns="http://www.w3.org/2000/svg">
<g id="Group 1000002886">
<path id="Rectangle 30038" d="M2.02121 68.6674C1.15926 67.3799 0.539859 65.9163 0.228408 64.3419L0.718903 64.2449C0.575345 63.5193 0.5 62.7687 0.5 62V58.875H0V52.625H0.5V46.375H0V40.125H0.5V33.875H0V27.625H0.5V21.375H0V15.125H0.5V12C0.5 11.2313 0.575345 10.4808 0.718902 9.75509L0.228409 9.65806C0.53986 8.08372 1.15926 6.62011 2.02121 5.33261L2.4367 5.61077C3.27644 4.35647 4.35646 3.27644 5.61077 2.4367L5.33261 2.02122C6.62011 1.15926 8.08372 0.53986 9.65806 0.228409L9.75509 0.718903C10.4807 0.575345 11.2313 0.5 12 0.5H15.1406V0H21.4219V0.5H27.7031V0H33.9844V0.5H40.2656V0H46.5469V0.5H52.8281V0H59.1094V0.5H62.25C63.0187 0.5 63.7692 0.575345 64.4949 0.718902L64.5919 0.228409C66.1663 0.53986 67.6299 1.15926 68.9174 2.02121L68.6392 2.4367C69.8935 3.27644 70.9736 4.35646 71.8133 5.61077L72.2288 5.33261C73.0907 6.62011 73.7101 8.08372 74.0216 9.65806L73.5311 9.75509C73.6747 10.4807 73.75 11.2313 73.75 12V15.125H74.25V21.375H73.75V27.625H74.25V33.875H73.75V40.125H74.25V46.375H73.75V52.625H74.25V58.875H73.75V62C73.75 62.7687 73.6747 63.5192 73.5311 64.2449L74.0216 64.3419C73.7101 65.9163 73.0907 67.3799 72.2288 68.6674L71.8133 68.3892C70.9736 69.6435 69.8935 70.7236 68.6392 71.5633L68.9174 71.9788C67.6299 72.8407 66.1663 73.4601 64.5919 73.7716L64.4949 73.2811C63.7693 73.4247 63.0187 73.5 62.25 73.5H59.1094V74H52.8281V73.5H46.5469V74H40.2656V73.5H33.9844V74H27.7031V73.5H21.4219V74H15.1406V73.5H12C11.2313 73.5 10.4807 73.4247 9.75509 73.2811L9.65806 73.7716C8.08372 73.4601 6.62011 72.8408 5.33261 71.9788L5.61077 71.5633C4.35647 70.7236 3.27644 69.6435 2.4367 68.3892L2.02121 68.6674Z" fill="#6F00FE" fill-opacity="0.1" stroke="#6F00FE" stroke-dasharray="6 6"/>
<g id="Group 513965">
<path id="Stroke 1" d="M51.1274 37.1274H22.8726" stroke="#6F00FE" stroke-width="2" stroke-linecap="round" stroke-linejoin="round"/>
<path id="Stroke 2" d="M36.9971 51.2813L37 23" stroke="#6F00FE" stroke-width="2" stroke-linecap="round" stroke-linejoin="round"/>
</g>
</g>
</svg>
