<svg width="50" height="50" viewBox="0 0 50 50" fill="none" xmlns="http://www.w3.org/2000/svg">
<rect opacity="0.1" width="50" height="50" rx="11" fill="#6F00FE"/>
<path fill-rule="evenodd" clip-rule="evenodd" d="M15 23.2583C15 19.741 15 17.9823 15.4153 17.3906C15.8305 16.799 17.4842 16.233 20.7914 15.1009L21.4215 14.8852C23.1455 14.2951 24.0075 14 24.9 14C25.7925 14 26.6545 14.2951 28.3785 14.8852L29.0086 15.1009C32.3158 16.233 33.9695 16.799 34.3847 17.3906C34.8 17.9823 34.8 19.741 34.8 23.2583V24.9905C34.8 31.1924 30.1371 34.202 27.2116 35.48C26.418 35.8267 26.0212 36 24.9 36C23.7788 36 23.382 35.8267 22.5884 35.48C19.6629 34.202 15 31.1924 15 24.9905V23.2583ZM27.1 21.7C27.1 22.915 26.115 23.9 24.9 23.9C23.685 23.9 22.7 22.915 22.7 21.7C22.7 20.485 23.685 19.5 24.9 19.5C26.115 19.5 27.1 20.485 27.1 21.7ZM24.9 30.5C29.3 30.5 29.3 29.515 29.3 28.3C29.3 27.085 27.3301 26.1 24.9 26.1C22.4699 26.1 20.5 27.085 20.5 28.3C20.5 29.515 20.5 30.5 24.9 30.5Z" fill="#6F00FE"/>
</svg>
