<svg width="48" height="48" viewBox="0 0 48 48" fill="none" xmlns="http://www.w3.org/2000/svg">
<g id="Star">
<rect id="Rectangle 30250" opacity="0.2" width="48" height="48" rx="24" fill="#6F00FE"/>
<path id="Star_2" d="M31.2677 27.3075C30.9542 27.6113 30.8102 28.0507 30.8816 28.4816L31.9576 34.437C32.0484 34.9417 31.8354 35.4526 31.4129 35.7443C30.999 36.0469 30.4483 36.0832 29.9968 35.8411L24.6361 33.045C24.4497 32.9457 24.2427 32.8925 24.0309 32.8864H23.7029C23.5891 32.9034 23.4778 32.9397 23.3761 32.9953L18.0142 35.8048C17.7491 35.9379 17.4489 35.9852 17.1548 35.9379C16.4383 35.8024 15.9602 35.1197 16.0776 34.3995L17.1548 28.4441C17.2262 28.0095 17.0822 27.5677 16.7687 27.259L12.3981 23.0225C12.0325 22.6678 11.9054 22.1352 12.0725 21.6547C12.2347 21.1753 12.6486 20.8255 13.1485 20.7469L19.164 19.8741C19.6215 19.8269 20.0234 19.5485 20.2291 19.137L22.8798 13.7021C22.9428 13.581 23.0239 13.4697 23.1219 13.3752L23.2309 13.2905C23.2877 13.2276 23.3531 13.1755 23.4257 13.1331L23.5577 13.0847L23.7634 13H24.273C24.7281 13.0472 25.1287 13.3196 25.3381 13.7263L28.0239 19.137C28.2176 19.5328 28.594 19.8075 29.0285 19.8741L35.0441 20.7469C35.5524 20.8195 35.9772 21.1705 36.1455 21.6547C36.304 22.1401 36.1673 22.6727 35.7945 23.0225L31.2677 27.3075Z" stroke="#6F00FE" stroke-width="2"/>
</g>
</svg>
