<svg width="16" height="18" viewBox="0 0 16 18" fill="none" xmlns="http://www.w3.org/2000/svg">
<path d="M5.48308 3.34883C5.14661 3.34883 4.87385 3.62995 4.87385 3.97673C4.87385 4.32352 5.14661 4.60464 5.48308 4.60464H10.3569C10.6934 4.60464 10.9662 4.32352 10.9662 3.97673C10.9662 3.62995 10.6934 3.34883 10.3569 3.34883H5.48308Z" fill="white"/>
<path fill-rule="evenodd" clip-rule="evenodd" d="M7.8733 2.26471e-07C6.18973 -1.20992e-05 4.86341 -2.1782e-05 3.82701 0.145146C2.76283 0.294204 1.91387 0.606711 1.24676 1.30172C0.580552 1.99579 0.281805 2.8775 0.139148 3.98294C-1.96574e-05 5.06135 -1.09373e-05 6.44199 1.98645e-07 8.19715V12.4652C-8.56489e-06 13.7273 -1.54875e-05 14.7266 0.0779894 15.479C0.155078 16.2225 0.320434 16.8932 0.792683 17.3418C1.17156 17.7016 1.6507 17.9285 2.16208 17.9888C2.80175 18.0642 3.39901 17.7494 3.98736 17.3199C4.58274 16.8853 5.30498 16.2268 6.21622 15.3962L6.24587 15.3691C6.66833 14.984 6.95435 14.7241 7.19298 14.5443C7.42361 14.3705 7.56443 14.3076 7.68312 14.283C7.83952 14.2505 8.00048 14.2505 8.15689 14.283C8.27557 14.3076 8.41639 14.3705 8.64702 14.5443C8.88566 14.7241 9.17167 14.984 9.59413 15.3691L9.62383 15.3962C10.535 16.2269 11.2573 16.8853 11.8526 17.3199C12.441 17.7494 13.0383 18.0642 13.6779 17.9888C14.1893 17.9285 14.6684 17.7016 15.0473 17.3418C15.5196 16.8932 15.6849 16.2225 15.762 15.479C15.84 14.7266 15.84 13.7273 15.84 12.4652V8.19713C15.84 6.44199 15.84 5.06134 15.7009 3.98294C15.5582 2.8775 15.2595 1.99579 14.5932 1.30172C13.9261 0.606711 13.0772 0.294204 12.013 0.145146C10.9766 -2.1782e-05 9.65027 -1.20992e-05 7.96671 2.26471e-07H7.8733ZM2.11298 2.18491C2.5165 1.76451 3.06444 1.51931 3.99109 1.38952C4.93595 1.25717 6.17943 1.25581 7.92 1.25581C9.66057 1.25581 10.9041 1.25717 11.8489 1.38952C12.7756 1.51931 13.3235 1.76451 13.727 2.18491C14.1315 2.60625 14.368 3.17987 14.493 4.14851C14.6203 5.13452 14.6215 6.43162 14.6215 8.24441V12.4249C14.6215 13.7362 14.6207 14.668 14.5504 15.3455C14.4785 16.0399 14.3457 16.3005 14.2216 16.4183C14.0317 16.5987 13.7928 16.7112 13.5394 16.7411C13.3772 16.7603 13.1054 16.6956 12.5569 16.2951C12.0219 15.9046 11.3489 15.2922 10.4014 14.4285L10.3801 14.4091C9.98432 14.0483 9.65605 13.749 9.36624 13.5306C9.06325 13.3022 8.75768 13.1267 8.39749 13.0519C8.08228 12.9865 7.75772 12.9865 7.44251 13.0519C7.08232 13.1267 6.77675 13.3022 6.47377 13.5306C6.18396 13.749 5.85569 14.0483 5.45989 14.4091L5.43862 14.4285C4.49115 15.2922 3.81806 15.9046 3.28306 16.2951C2.7346 16.6956 2.46277 16.7603 2.3006 16.7411C2.04717 16.7112 1.80834 16.5987 1.61842 16.4183C1.49435 16.3005 1.36154 16.0399 1.28955 15.3455C1.21931 14.668 1.21846 13.7362 1.21846 12.4249V8.24441C1.21846 6.43162 1.21973 5.13452 1.34697 4.14851C1.47198 3.17987 1.70855 2.60626 2.11298 2.18491Z" fill="white"/>
</svg>
