<svg width="48" height="48" viewBox="0 0 48 48" fill="none" xmlns="http://www.w3.org/2000/svg">
<g id="Vector">
<rect id="Rectangle 30252" opacity="0.2" width="48" height="48" rx="24" fill="#6F00FE"/>
<g id="Vector_2">
<path d="M21.1132 17.3444C20.6767 17.3444 20.3228 17.7091 20.3228 18.159C20.3228 18.6089 20.6767 18.9736 21.1132 18.9736H27.436C27.8725 18.9736 28.2264 18.6089 28.2264 18.159C28.2264 17.7091 27.8725 17.3444 27.436 17.3444H21.1132Z" fill="#6F00FE"/>
<path fill-rule="evenodd" clip-rule="evenodd" d="M24.214 13C22.0299 13 20.3093 13 18.9648 13.1883C17.5842 13.3817 16.4829 13.7871 15.6174 14.6887C14.7531 15.5891 14.3656 16.733 14.1805 18.1671C14 19.5661 14 21.3572 14 23.6341V29.1711C14 30.8084 14 32.1048 14.1012 33.0808C14.2012 34.0454 14.4157 34.9155 15.0283 35.4974C15.5199 35.9643 16.1414 36.2586 16.8049 36.3368C17.6347 36.4347 18.4095 36.0263 19.1728 35.4691C19.9452 34.9052 20.8821 34.051 22.0643 32.9734L22.1028 32.9383C22.6508 32.4387 23.0219 32.1016 23.3314 31.8683C23.6306 31.6428 23.8133 31.5613 23.9673 31.5293C24.1702 31.4872 24.379 31.4872 24.5819 31.5293C24.7359 31.5613 24.9186 31.6428 25.2178 31.8683C25.5273 32.1016 25.8984 32.4387 26.4464 32.9383L26.485 32.9735C27.6671 34.0511 28.604 34.9052 29.3764 35.4691C30.1397 36.0263 30.9145 36.4347 31.7443 36.3368C32.4077 36.2586 33.0293 35.9643 33.5208 35.4974C34.1335 34.9155 34.348 34.0454 34.448 33.0808C34.5492 32.1048 34.5492 30.8084 34.5492 29.1711V23.6341C34.5492 21.3572 34.5492 19.5661 34.3687 18.1671C34.1836 16.733 33.796 15.5891 32.9318 14.6887C32.0663 13.7871 30.965 13.3817 29.5844 13.1883C28.2399 13 26.5193 13 24.3352 13H24.214ZM16.7412 15.8345C17.2647 15.2891 17.9755 14.971 19.1776 14.8026C20.4034 14.6309 22.0166 14.6292 24.2746 14.6292C26.5326 14.6292 28.1458 14.6309 29.3716 14.8026C30.5737 14.971 31.2845 15.2891 31.808 15.8345C32.3327 16.3811 32.6396 17.1252 32.8018 18.3819C32.9668 19.661 32.9685 21.3437 32.9685 23.6955V29.1188C32.9685 30.82 32.9674 32.0288 32.8763 32.9077C32.7829 33.8085 32.6106 34.1465 32.4496 34.2994C32.2032 34.5334 31.8934 34.6795 31.5646 34.7182C31.3542 34.743 31.0016 34.6591 30.2901 34.1396C29.596 33.6329 28.7228 32.8385 27.4937 31.718L27.4661 31.6929C26.9526 31.2248 26.5268 30.8365 26.1508 30.5532C25.7577 30.257 25.3613 30.0292 24.894 29.9322C24.4851 29.8473 24.0641 29.8473 23.6551 29.9322C23.1879 30.0292 22.7915 30.257 22.3984 30.5532C22.0224 30.8365 21.5966 31.2248 21.0831 31.6929L21.0555 31.718C19.8264 32.8385 18.9532 33.6329 18.2591 34.1396C17.5476 34.6591 17.1949 34.743 16.9846 34.7182C16.6558 34.6795 16.346 34.5334 16.0996 34.2994C15.9386 34.1465 15.7663 33.8085 15.6729 32.9077C15.5818 32.0288 15.5807 30.82 15.5807 29.1188V23.6955C15.5807 21.3437 15.5824 19.661 15.7474 18.3819C15.9096 17.1252 16.2165 16.3811 16.7412 15.8345Z" fill="#6F00FE"/>
</g>
</g>
</svg>
