<svg width="22" height="26" viewBox="0 0 22 26" fill="none" xmlns="http://www.w3.org/2000/svg">
<g id="Property 1=Variant2">
<path id="Vector" fill-rule="evenodd" clip-rule="evenodd" d="M22 11.3719V17.6136C22 21.4843 22 23.4197 21.1028 24.2654C20.6748 24.6687 20.1347 24.9221 19.5593 24.9894C18.3529 25.1306 16.944 24.8562 14.1262 22.3073C12.8807 21.1806 12.258 20.6173 11.5374 20.4688C11.1826 20.3957 10.8174 20.3957 10.4626 20.4688C9.74203 20.6173 9.11927 21.1806 7.87375 22.3073C5.05601 24.8562 3.64713 25.1306 2.44067 24.9894C1.86529 24.9221 1.32515 24.6687 0.897241 24.2654C0 23.4197 0 21.4843 0 17.6136V11.3719C0 6.01113 0 3.33075 1.61091 1.66538C3.22183 0 5.81455 0 11 0C16.1854 0 18.7782 0 20.3891 1.66538C22 3.33075 22 6.01113 22 11.3719ZM6.41667 5C6.41667 4.48223 6.82707 4.0625 7.33333 4.0625H14.6667C15.1729 4.0625 15.5833 4.48223 15.5833 5C15.5833 5.51777 15.1729 5.9375 14.6667 5.9375H7.33333C6.82707 5.9375 6.41667 5.51777 6.41667 5Z" fill="#6F00FE"/>
</g>
</svg>
