<svg width="48" height="48" viewBox="0 0 48 48" fill="none" xmlns="http://www.w3.org/2000/svg">
<g id="Vector">
<rect id="Rectangle 30252" width="48" height="48" rx="24" fill="#6F00FE"/>
<path id="Vector_2" fill-rule="evenodd" clip-rule="evenodd" d="M34.5492 23.622V29.4521C34.5492 33.0675 34.5492 34.8753 33.7111 35.6652C33.3114 36.0419 32.8069 36.2786 32.2695 36.3415C31.1426 36.4733 29.8266 35.2829 27.1947 32.9022C26.0313 31.8498 25.4496 31.3236 24.7766 31.1849C24.4452 31.1167 24.104 31.1167 23.7726 31.1849C23.0996 31.3236 22.5179 31.8498 21.3545 32.9022C18.7226 35.2829 17.4066 36.4733 16.2797 36.3415C15.7423 36.2786 15.2378 36.0419 14.8381 35.6652C14 34.8753 14 33.0675 14 29.4521V23.622C14 18.6147 14 16.1111 15.5047 14.5556C17.0094 13 19.4311 13 24.2746 13C29.1181 13 31.5398 13 33.0445 14.5556C34.5492 16.1111 34.5492 18.6147 34.5492 23.622ZM19.9935 17.6703C19.9935 17.1866 20.3769 16.7946 20.8497 16.7946H27.6995C28.1723 16.7946 28.5557 17.1866 28.5557 17.6703C28.5557 18.1539 28.1723 18.5459 27.6995 18.5459H20.8497C20.3769 18.5459 19.9935 18.1539 19.9935 17.6703Z" fill="white"/>
</g>
</svg>
