<svg width="22" height="25" viewBox="0 0 22 25" fill="none" xmlns="http://www.w3.org/2000/svg">
<g id="Vector">
<g id="Vector_2">
<path d="M7.61539 4.65115C7.14807 4.65115 6.76923 5.0416 6.76923 5.52324C6.76923 6.00489 7.14807 6.39533 7.61539 6.39533H14.3846C14.8519 6.39533 15.2308 6.00489 15.2308 5.52324C15.2308 5.0416 14.8519 4.65115 14.3846 4.65115H7.61539Z" fill="#6F00FE"/>
<path fill-rule="evenodd" clip-rule="evenodd" d="M10.9351 3.14543e-07C8.59685 -1.68044e-05 6.75474 -3.02527e-05 5.31529 0.201592C3.83727 0.408617 2.65816 0.842654 1.73161 1.80795C0.806322 2.77193 0.391396 3.99652 0.193262 5.53186C-2.7302e-05 7.02965 -1.51907e-05 8.94721 2.75896e-07 11.3849V17.3128C-1.18957e-05 19.0657 -2.15104e-05 20.4536 0.108319 21.4986C0.215386 22.5312 0.445047 23.4628 1.10095 24.0858C1.62716 24.5856 2.29264 24.9007 3.00289 24.9844C3.89131 25.0892 4.72085 24.652 5.538 24.0554C6.36491 23.4517 7.36803 22.5373 8.63363 21.3836L8.67482 21.346C9.26157 20.8111 9.65881 20.4502 9.99025 20.2004C10.3106 19.959 10.5061 19.8717 10.671 19.8375C10.8882 19.7924 11.1118 19.7924 11.329 19.8375C11.4939 19.8717 11.6894 19.959 12.0098 20.2004C12.3412 20.4502 12.7384 20.8111 13.3252 21.346L13.3664 21.3836C14.632 22.5373 15.6351 23.4518 16.462 24.0554C17.2792 24.652 18.1087 25.0892 18.9971 24.9844C19.7074 24.9007 20.3728 24.5856 20.8991 24.0858C21.555 23.4628 21.7846 22.5312 21.8917 21.4986C22 20.4537 22 19.0657 22 17.3128V11.3849C22 8.94721 22 7.02963 21.8067 5.53186C21.6086 3.99652 21.1937 2.77193 20.2684 1.80795C19.3418 0.842654 18.1627 0.408617 16.6847 0.201592C15.2453 -3.02527e-05 13.4031 -1.68044e-05 11.0649 3.14543e-07H10.9351ZM2.93469 3.0346C3.49514 2.45071 4.25617 2.11016 5.54318 1.92989C6.85548 1.74607 8.58254 1.74418 11 1.74418C13.4175 1.74418 15.1445 1.74607 16.4568 1.92989C17.7438 2.11016 18.5049 2.45071 19.0653 3.0346C19.627 3.6198 19.9556 4.41649 20.1292 5.76182C20.3059 7.13128 20.3077 8.93281 20.3077 11.4506V17.2568C20.3077 19.0781 20.3065 20.3722 20.209 21.3132C20.109 22.2776 19.9245 22.6395 19.7522 22.8032C19.4884 23.0537 19.1567 23.2101 18.8047 23.2516C18.5795 23.2781 18.202 23.1883 17.4402 22.6321C16.6971 22.0897 15.7623 21.2391 14.4464 20.0395L14.4168 20.0126C13.8671 19.5115 13.4112 19.0958 13.0087 18.7925C12.5879 18.4753 12.1634 18.2315 11.6632 18.1277C11.2254 18.0368 10.7746 18.0368 10.3368 18.1277C9.83655 18.2315 9.41215 18.4753 8.99134 18.7925C8.58883 19.0958 8.13291 19.5115 7.58318 20.0126L7.55364 20.0395C6.2377 21.2391 5.30286 22.0897 4.55981 22.6321C3.79805 23.1883 3.42051 23.2781 3.19528 23.2516C2.84329 23.2101 2.51158 23.0537 2.24781 22.8032C2.07548 22.6395 1.89103 22.2776 1.79105 21.3132C1.69348 20.3722 1.69231 19.0781 1.69231 17.2568V11.4506C1.69231 8.93281 1.69407 7.13128 1.8708 5.76182C2.04441 4.41649 2.37298 3.6198 2.93469 3.0346Z" fill="#6F00FE"/>
</g>
</g>
</svg>
