<svg width="16" height="18" viewBox="0 0 16 18" fill="none" xmlns="http://www.w3.org/2000/svg">
<path fill-rule="evenodd" clip-rule="evenodd" d="M15.84 8.18777V12.6818C15.84 15.4687 15.84 16.8622 15.194 17.4711C14.8859 17.7615 14.497 17.9439 14.0827 17.9924C13.2141 18.094 12.1997 17.1764 10.1709 15.3412C9.27413 14.53 8.82574 14.1244 8.30696 14.0176C8.0515 13.9649 7.7885 13.9649 7.53305 14.0176C7.01426 14.1244 6.56587 14.53 5.6691 15.3412C3.64033 17.1764 2.62594 18.094 1.75729 17.9924C1.34301 17.9439 0.954109 17.7615 0.646013 17.4711C0 16.8622 0 15.4687 0 12.6818V8.18777C0 4.32802 0 2.39814 1.15986 1.19907C2.31971 0 4.18648 0 7.92 0C11.6535 0 13.5203 0 14.6801 1.19907C15.84 2.39814 15.84 4.32802 15.84 8.18777ZM4.62 3.6C4.62 3.22721 4.91549 2.925 5.28 2.925H10.56C10.9245 2.925 11.22 3.22721 11.22 3.6C11.22 3.97279 10.9245 4.275 10.56 4.275H5.28C4.91549 4.275 4.62 3.97279 4.62 3.6Z" fill="white"/>
</svg>
