<svg width="48" height="48" viewBox="0 0 48 48" fill="none" xmlns="http://www.w3.org/2000/svg">
<circle cx="24" cy="24" r="24" fill="#6F00FE"/>
<g clip-path="url(#clip0_3418_1946)">
<path d="M15.7917 14C16.6167 14.3629 17.3988 14.8153 18.1965 15.2336C23.6316 18.0851 29.064 20.9426 34.4986 23.7958C34.7008 23.9021 34.879 24.0244 34.9566 24.2547C35.0796 24.6176 34.9352 24.9718 34.5767 25.1615C33.5474 25.7064 32.5164 26.2481 31.4849 26.7898C26.3655 29.4796 21.2455 32.1682 16.125 34.8569C16.0485 34.8969 15.9693 34.9359 15.8869 34.9611C15.353 35.1245 14.9116 34.7434 15.0143 34.1809C15.1363 33.5104 15.2915 32.8464 15.4375 32.1808C15.8586 30.257 16.2844 28.3343 16.7012 26.4093C16.7306 26.2728 16.7804 26.2163 16.9115 26.1938C18.3297 25.9466 19.7475 25.6955 21.1653 25.4438C22.7403 25.1648 24.3154 24.8841 25.8904 24.6044C26.0407 24.5776 26.1911 24.5513 26.3473 24.4833C26.0937 24.4361 25.8407 24.3862 25.5865 24.3413C23.5257 23.975 21.4654 23.6088 19.4046 23.2437C18.5973 23.1006 17.7905 22.9558 16.9815 22.821C16.8125 22.7924 16.728 22.7343 16.6873 22.5446C16.1453 20.0336 15.5921 17.5248 15.0422 15.0148C15.0336 14.9748 15.0304 14.9337 15.0245 14.8931C14.9507 14.4244 15.0882 14.1722 15.5119 14C15.605 14 15.6986 14 15.7917 14Z" fill="#F8FAFD"/>
</g>
<defs>
<clipPath id="clip0_3418_1946">
<rect width="20" height="21" fill="white" transform="translate(15 14)"/>
</clipPath>
</defs>
</svg>
