<svg width="25" height="26" viewBox="0 0 25 26" fill="none" xmlns="http://www.w3.org/2000/svg">
<g id="Vector">
<path fill-rule="evenodd" clip-rule="evenodd" d="M12.6613 8.46512C10.1122 8.46512 8.04587 10.4955 8.04587 13C8.04587 15.5045 10.1122 17.5349 12.6613 17.5349C15.2103 17.5349 17.2766 15.5045 17.2766 13C17.2766 10.4955 15.2103 8.46512 12.6613 8.46512ZM9.89202 13C9.89202 11.4973 11.1319 10.2791 12.6613 10.2791C14.1907 10.2791 15.4305 11.4973 15.4305 13C15.4305 14.5027 14.1907 15.7209 12.6613 15.7209C11.1319 15.7209 9.89202 14.5027 9.89202 13Z" fill="#6F00FE"/>
<path fill-rule="evenodd" clip-rule="evenodd" d="M12.6613 0C11.7941 0 11.002 0.234112 10.1364 0.629279C9.29889 1.01165 8.32943 1.57577 7.11611 2.28178L6.18923 2.8211C4.97551 3.52732 4.00613 4.09136 3.25912 4.63095C2.48667 5.18891 1.8942 5.76004 1.46537 6.50861C1.03723 7.25599 0.843914 8.0551 0.751169 9.00333C0.661237 9.9228 0.661245 11.0488 0.661255 12.4631V13.5369C0.661245 14.9512 0.661237 16.0772 0.751169 16.9967C0.843914 17.9449 1.03723 18.744 1.46537 19.4914C1.8942 20.24 2.48666 20.8111 3.25912 21.369C4.00613 21.9086 4.97551 22.4727 6.18924 23.1789L7.11614 23.7182C8.32941 24.4242 9.29892 24.9884 10.1364 25.3707C11.002 25.7659 11.7941 26 12.6613 26C13.5284 26 14.3205 25.7659 15.1861 25.3707C16.0236 24.9884 16.9931 24.4242 18.2064 23.7182L19.1333 23.1789C20.347 22.4727 21.3164 21.9086 22.0634 21.369C22.8358 20.8111 23.4283 20.24 23.8571 19.4914C24.2853 18.744 24.4786 17.9449 24.5713 16.9967C24.6613 16.0772 24.6613 14.9512 24.6613 13.537V12.4631C24.6613 11.0489 24.6613 9.92279 24.5713 9.00333C24.4786 8.0551 24.2853 7.25599 23.8571 6.50861C23.4283 5.76004 22.8358 5.18891 22.0634 4.63095C21.3164 4.09137 20.347 3.52733 19.1333 2.82112L18.2064 2.28177C16.9931 1.57576 16.0236 1.01165 15.1861 0.629279C14.3205 0.234112 13.5284 0 12.6613 0ZM8.0154 3.86668C9.27957 3.13109 10.1702 2.61404 10.9144 2.27432C11.64 1.94306 12.1576 1.81395 12.6613 1.81395C13.165 1.81395 13.6825 1.94306 14.4081 2.27432C15.1523 2.61404 16.0429 3.13109 17.3071 3.86668L18.1516 4.35807C19.4156 5.09355 20.3055 5.61255 20.9699 6.09247C21.6172 6.56007 21.9917 6.95042 22.2483 7.39837C22.5056 7.84751 22.655 8.37309 22.7337 9.17686C22.8141 9.99953 22.8151 11.0385 22.8151 12.5086V13.4914C22.8151 14.9615 22.8141 16.0005 22.7337 16.8231C22.655 17.6269 22.5056 18.1525 22.2483 18.6016C21.9917 19.0496 21.6172 19.4399 20.9699 19.9075C20.3055 20.3875 19.4156 20.9065 18.1516 21.6419L17.3071 22.1333C16.0429 22.8689 15.1523 23.386 14.4081 23.7257C13.6825 24.0569 13.165 24.186 12.6613 24.186C12.1576 24.186 11.64 24.0569 10.9144 23.7257C10.1702 23.386 9.27957 22.8689 8.0154 22.1333L7.1709 21.6419C5.90691 20.9065 5.01702 20.3875 4.35262 19.9075C3.70527 19.4399 3.33079 19.0496 3.07418 18.6016C2.81688 18.1525 2.66747 17.6269 2.58886 16.8231C2.50839 16.0005 2.50741 14.9615 2.50741 13.4914V12.5086C2.50741 11.0385 2.50839 9.99953 2.58886 9.17686C2.66747 8.37309 2.81688 7.84751 3.07418 7.39837C3.33079 6.95042 3.70527 6.56007 4.35262 6.09247C5.01702 5.61255 5.90691 5.09355 7.1709 4.35807L8.0154 3.86668Z" fill="#6F00FE"/>
</g>
</svg>
