<svg width="20" height="21" viewBox="0 0 20 21" fill="none" xmlns="http://www.w3.org/2000/svg">
<g id="Frame" clip-path="url(#clip0_1557_3363)">
<g id="Group">
<path id="Vector" d="M0.791758 0C1.61673 0.362948 2.39891 0.815263 3.19659 1.23358C8.63169 4.08508 14.0641 6.94262 19.4987 9.79576C19.7009 9.90212 19.879 10.0244 19.9566 10.2547C20.0797 10.6176 19.9352 10.9718 19.5768 11.1615C18.5474 11.7064 17.5165 12.2481 16.485 12.7898C11.3655 15.4796 6.24557 18.1682 1.12506 20.8569C1.04856 20.8969 0.969379 20.9359 0.886988 20.9611C0.353056 21.1245 -0.0883213 20.7434 0.0143992 20.1809C0.13638 19.5104 0.291531 18.8464 0.437586 18.1808C0.858633 16.257 1.2845 14.3343 1.70126 12.4093C1.73069 12.2728 1.78044 12.2163 1.91152 12.1938C3.32981 11.9466 4.74757 11.6955 6.16532 11.4438C7.74037 11.1648 9.31542 10.8841 10.8905 10.6044C11.0408 10.5776 11.1911 10.5513 11.3474 10.4833C11.0938 10.4361 10.8407 10.3862 10.5866 10.3413C8.52576 9.97504 6.46546 9.6088 4.40463 9.24366C3.59731 9.10057 2.79053 8.95583 1.9816 8.82095C1.81254 8.79245 1.72801 8.73433 1.68735 8.54463C1.14539 6.0336 0.592202 3.52476 0.0422193 1.01483C0.0336593 0.974806 0.0304493 0.933687 0.0245643 0.893116C-0.0492661 0.424353 0.0882296 0.172154 0.511952 0C0.605042 0 0.698668 0 0.791758 0Z" fill="#6F00FE"/>
</g>
</g>
<defs>
<clipPath id="clip0_1557_3363">
<rect width="20" height="21" fill="white"/>
</clipPath>
</defs>
</svg>
