<svg width="48" height="48" viewBox="0 0 48 48" fill="none" xmlns="http://www.w3.org/2000/svg">
<g id="Property 1=Default">
<rect id="Rectangle 30249" opacity="0.2" width="48" height="48" rx="24" fill="#6F00FE"/>
<path id="Vector" fill-rule="evenodd" clip-rule="evenodd" d="M27.1852 14.374C27.2027 14.3896 27.2203 14.4052 27.2379 14.4208L32.709 19.2841C33.7299 20.1915 34.5762 20.9437 35.1572 21.6265C35.7679 22.3442 36.2028 23.1168 36.2028 24.073C36.2028 25.0291 35.7679 25.8017 35.1572 26.5194C34.5762 27.2023 33.7299 27.9545 32.709 28.8618L27.2379 33.7251C27.2202 33.7407 27.2027 33.7564 27.1852 33.7719C26.7429 34.1651 26.3302 34.5321 25.9737 34.7675C25.6235 34.9987 24.9868 35.3345 24.2736 35.0142C23.5603 34.6939 23.3883 33.995 23.3284 33.5797C23.2675 33.1568 23.2676 32.6045 23.2677 32.0127C23.2677 31.9893 23.2677 31.9658 23.2677 31.9422V29.8042C21.2892 29.9405 19.2843 30.466 17.5305 31.3206C15.4683 32.3254 13.8213 33.7503 12.9275 35.4528C12.7088 35.8692 12.2343 36.0828 11.7776 35.9702C11.3209 35.8576 11 35.4479 11 34.9776C11 28.5426 12.8829 24.3525 15.5752 21.7765C17.9218 19.5312 20.7819 18.6098 23.2677 18.417V16.2037C23.2677 16.1801 23.2677 16.1566 23.2677 16.1332C23.2676 15.5415 23.2675 14.9892 23.3284 14.5663C23.3883 14.151 23.5603 13.452 24.2736 13.1317C24.9868 12.8114 25.6235 13.1472 25.9737 13.3784C26.3302 13.6138 26.743 13.9808 27.1852 14.374ZM25.3165 15.4542C25.4706 15.5862 25.6546 15.7491 25.8795 15.949L31.294 20.7619C32.386 21.7326 33.1228 22.3906 33.6001 22.9516C34.0585 23.4903 34.1582 23.8049 34.1582 24.073C34.1582 24.3411 34.0585 24.6557 33.6001 25.1944C33.1228 25.7553 32.386 26.4134 31.294 27.384L25.8795 32.1969C25.6546 32.3968 25.4706 32.5597 25.3165 32.6918C25.3128 32.4888 25.3123 32.2431 25.3123 31.9422V28.7464C25.3123 28.1818 24.8546 27.7241 24.29 27.7241C21.683 27.7241 18.9739 28.3428 16.6349 29.4825C15.3825 30.0928 14.2166 30.8625 13.2272 31.7836C13.7298 27.6304 15.2152 24.9507 16.9887 23.2538C19.1969 21.1409 21.987 20.4219 24.29 20.4219C24.8546 20.4219 25.3123 19.9642 25.3123 19.3996V16.2037C25.3123 15.9029 25.3128 15.6571 25.3165 15.4542Z" fill="#6F00FE"/>
</g>
</svg>
