<svg width="34" height="32" viewBox="0 0 34 32" fill="none" xmlns="http://www.w3.org/2000/svg">
<path d="M26.1318 19.6619C25.7229 20.0582 25.535 20.6313 25.6282 21.1934L27.0317 28.9613C27.1501 29.6197 26.8722 30.2859 26.3212 30.6664C25.7813 31.0612 25.063 31.1085 24.4741 30.7927L17.4819 27.1456C17.2387 27.0162 16.9688 26.9467 16.6925 26.9388H16.2647C16.1162 26.9609 15.971 27.0083 15.8384 27.0809L8.84457 30.7454C8.49882 30.9191 8.1073 30.9806 7.72366 30.9191C6.78905 30.7422 6.16544 29.8518 6.31858 28.9123L7.72366 21.1444C7.81681 20.5776 7.62894 20.0014 7.22004 19.5988L1.51921 14.0728C1.04243 13.6102 0.876662 12.9155 1.09453 12.2887C1.30608 11.6635 1.84601 11.2072 2.49803 11.1046L10.3444 9.96624C10.9411 9.90467 11.4653 9.54154 11.7337 9.00473L15.1911 1.91573C15.2732 1.75784 15.379 1.61259 15.5069 1.48944L15.6489 1.37892C15.7231 1.29682 15.8084 1.22893 15.9031 1.17367L16.0752 1.11052L16.3436 1H17.0082C17.6018 1.06157 18.1244 1.41681 18.3975 1.94731L21.9008 9.00473C22.1534 9.52101 22.6443 9.87941 23.2111 9.96624L31.0575 11.1046C31.7205 11.1993 32.2747 11.6572 32.4941 12.2887C32.7009 12.9218 32.5225 13.6165 32.0363 14.0728L26.1318 19.6619Z" stroke="#C5D0DB" stroke-width="1.5"/>
</svg>
