<svg width="32" height="30" viewBox="0 0 32 30" fill="none" xmlns="http://www.w3.org/2000/svg">
<path d="M25.1318 18.6619C24.7229 19.0582 24.535 19.6313 24.6282 20.1934L26.0317 27.9613C26.1501 28.6197 25.8722 29.2859 25.3212 29.6664C24.7813 30.0612 24.063 30.1085 23.4741 29.7927L16.4819 26.1456C16.2387 26.0162 15.9688 25.9467 15.6925 25.9388H15.2647C15.1162 25.9609 14.971 26.0083 14.8384 26.0809L7.84457 29.7454C7.49882 29.9191 7.1073 29.9806 6.72366 29.9191C5.78905 29.7422 5.16544 28.8518 5.31858 27.9123L6.72366 20.1444C6.81681 19.5776 6.62894 19.0014 6.22004 18.5988L0.51921 13.0728C0.04243 12.6102 -0.123338 11.9155 0.0945284 11.2887C0.30608 10.6635 0.846009 10.2072 1.49803 10.1046L9.34437 8.96624C9.94114 8.90467 10.4653 8.54154 10.7337 8.00473L14.1911 0.915728C14.2732 0.757844 14.379 0.612591 14.5069 0.489441L14.6489 0.378922C14.7231 0.296822 14.8084 0.228932 14.9031 0.173673L15.0752 0.110519L15.3436 0H16.0082C16.6018 0.0615748 17.1244 0.416814 17.3975 0.947305L20.9008 8.00473C21.1534 8.52101 21.6443 8.87941 22.2111 8.96624L30.0575 10.1046C30.7205 10.1993 31.2747 10.6572 31.4941 11.2887C31.7009 11.9218 31.5225 12.6165 31.0363 13.0728L25.1318 18.6619Z" fill="#F5C107"/>
</svg>
