<svg width="21" height="20" viewBox="0 0 21 20" fill="none" xmlns="http://www.w3.org/2000/svg">
<path d="M16.0791 12.1971C15.8337 12.4349 15.721 12.7788 15.7769 13.116L16.619 17.7768C16.69 18.1718 16.5233 18.5716 16.1927 18.7999C15.8688 19.0367 15.4378 19.0651 15.0845 18.8756L10.8891 16.6874C10.7432 16.6097 10.5813 16.568 10.4155 16.5633H10.1588C10.0697 16.5765 9.9826 16.605 9.90304 16.6485L5.70674 18.8472C5.49929 18.9514 5.26438 18.9884 5.0342 18.9514C4.47343 18.8453 4.09927 18.3111 4.19115 17.7474L5.0342 13.0867C5.09008 12.7466 4.97736 12.4008 4.73203 12.1593L1.31153 8.84369C1.02546 8.56613 0.925997 8.14931 1.05672 7.77323C1.18365 7.3981 1.50761 7.12433 1.89882 7.06275L6.60662 6.37975C6.96468 6.3428 7.27917 6.12492 7.4402 5.80284L9.51466 1.54944C9.56392 1.45471 9.62739 1.36755 9.70411 1.29366L9.78936 1.22735C9.83389 1.17809 9.88504 1.13736 9.94187 1.1042L10.0451 1.06631L10.2062 1H10.6049C10.9611 1.03694 11.2746 1.25009 11.4385 1.56838L13.5405 5.80284C13.692 6.11261 13.9866 6.32764 14.3267 6.37975L19.0345 7.06275C19.4323 7.11959 19.7648 7.39431 19.8965 7.77323C20.0206 8.1531 19.9135 8.56992 19.6218 8.84369L16.0791 12.1971Z" stroke="white" stroke-width="1.5"/>
</svg>
