<svg width="50" height="50" viewBox="0 0 50 50" fill="none" xmlns="http://www.w3.org/2000/svg">
<rect opacity="0.1" width="50" height="50" rx="11" fill="#6F00FE"/>
<path fill-rule="evenodd" clip-rule="evenodd" d="M16.2887 15.2887C15 16.5775 15 18.6516 15 22.8V27.2C15 31.3484 15 33.4225 16.2887 34.7113C17.5775 36 19.6516 36 23.8 36H26C30.1484 36 32.2225 36 33.5113 34.7113C34.8 33.4225 34.8 31.3484 34.8 27.2V22.8C34.8 18.6516 34.8 16.5775 33.5113 15.2887C32.2225 14 30.1484 14 26 14H23.8C19.6516 14 17.5775 14 16.2887 15.2887ZM19.675 20.6C19.675 20.1444 20.0444 19.775 20.5 19.775H29.3C29.7556 19.775 30.125 20.1444 30.125 20.6C30.125 21.0556 29.7556 21.425 29.3 21.425H20.5C20.0444 21.425 19.675 21.0556 19.675 20.6ZM19.675 25C19.675 24.5444 20.0444 24.175 20.5 24.175H29.3C29.7556 24.175 30.125 24.5444 30.125 25C30.125 25.4556 29.7556 25.825 29.3 25.825H20.5C20.0444 25.825 19.675 25.4556 19.675 25ZM20.5 28.575C20.0444 28.575 19.675 28.9444 19.675 29.4C19.675 29.8556 20.0444 30.225 20.5 30.225H26C26.4556 30.225 26.825 29.8556 26.825 29.4C26.825 28.9444 26.4556 28.575 26 28.575H20.5Z" fill="#6F00FE"/>
</svg>
