<svg width="28" height="28" viewBox="0 0 28 28" fill="none" xmlns="http://www.w3.org/2000/svg">
<path opacity="0.5" d="M14 23.3333C8.84534 23.3333 4.66667 19.1546 4.66667 14C4.66667 8.8453 8.84534 4.66663 14 4.66663V23.3333Z" fill="#6F00FE"/>
<path fill-rule="evenodd" clip-rule="evenodd" d="M19.2148 9.88128C18.8731 10.223 18.8731 10.777 19.2148 11.1187L21.2211 13.125H11.6668C11.1836 13.125 10.7918 13.5168 10.7918 14C10.7918 14.4832 11.1836 14.875 11.6668 14.875H21.2211L19.2148 16.8813C18.8731 17.223 18.8731 17.777 19.2148 18.1187C19.5565 18.4604 20.1105 18.4604 20.4522 18.1187L23.9522 14.6187C24.2939 14.277 24.2939 13.723 23.9522 13.3813L20.4522 9.88128C20.1105 9.53957 19.5565 9.53957 19.2148 9.88128Z" fill="#6F00FE"/>
</svg>
