<svg width="20" height="15" viewBox="0 0 20 15" fill="none" xmlns="http://www.w3.org/2000/svg">
<g id="Group 514051">
<path id="Vector" opacity="0.4" d="M19.9687 7.29142C19.2807 5.94284 18.4233 4.72167 17.3318 3.68182C15.1409 1.59367 12.5744 0.489858 9.54477 0.608803C8.37853 0.653664 7.22968 0.91205 6.15302 1.37164C3.83469 2.35598 2.06033 3.99637 0.713372 6.13422C0.461076 6.53334 0.236754 6.95045 0 7.35962V7.43944C0.084444 7.5161 0.1176 7.625 0.16837 7.72174C0.927848 9.16495 1.88989 10.4453 3.11459 11.5084C5.42048 13.5094 8.06881 14.4535 11.1062 14.1416C12.8712 13.9603 14.4736 13.3132 15.9268 12.2877C17.6773 11.0522 18.9921 9.42715 19.9702 7.50817C19.99 7.47554 20.0003 7.4379 20 7.39957C19.9997 7.36123 19.9889 7.32375 19.9687 7.29142ZM18.056 7.51451C17.081 9.12001 15.8283 10.4358 14.2058 11.3636C12.9209 12.1083 11.47 12.5031 9.99237 12.5102C8.08953 12.4859 6.382 11.8679 4.8475 10.735C3.67565 9.86699 2.73588 8.78538 1.979 7.53196C1.92719 7.44473 1.90595 7.38288 1.96604 7.28455C2.94725 5.66636 4.20821 4.3384 5.85151 3.4175C7.4575 2.51563 9.17228 2.13025 11.0052 2.36021C12.994 2.61079 14.6803 3.50526 16.1392 4.87709C16.8787 5.58075 17.5197 6.38497 18.0441 7.2671C18.0954 7.35433 18.1156 7.41618 18.056 7.51451Z" fill="white"/>
<path id="Vector_2" opacity="0.4" d="M10.0012 3.80005C9.04782 3.80136 8.13372 4.18017 7.45885 4.85364C6.78398 5.52711 6.40328 6.44043 6.39999 7.39384C6.40026 8.35044 6.78049 9.26777 7.45705 9.94405C8.13361 10.6203 9.05109 11.0002 10.0077 11C10.9611 10.996 11.8741 10.6147 12.5472 9.93953C13.2203 9.26436 13.5988 8.3502 13.6 7.39682C13.5972 6.4434 13.2171 5.52985 12.5428 4.85586C11.8684 4.18187 10.9547 3.80228 10.0012 3.80005ZM9.99875 9.39641C9.73602 9.39693 9.47577 9.34546 9.23302 9.24495C8.99027 9.14443 8.76981 8.99687 8.58435 8.81077C8.39889 8.62466 8.2521 8.40369 8.15243 8.16059C8.05276 7.91749 8.00219 7.65707 8.00364 7.39434C8.00362 7.1317 8.05567 6.87166 8.15678 6.62926C8.25788 6.38686 8.40604 6.16691 8.59267 5.98212C8.77931 5.79734 9.00072 5.65138 9.24412 5.55269C9.48751 5.454 9.74805 5.40454 10.0107 5.40717C10.2737 5.40715 10.534 5.45933 10.7767 5.56068C11.0193 5.66203 11.2395 5.81054 11.4243 5.9976C11.6092 6.18466 11.755 6.40655 11.8535 6.6504C11.9519 6.89425 12.001 7.15522 11.9978 7.41818C11.9947 7.94549 11.7824 8.44998 11.4076 8.82089C11.0328 9.19179 10.5261 9.39878 9.99875 9.39641Z" fill="white"/>
</g>
</svg>
